<svg xmlns="http://www.w3.org/2000/svg" id="Layer_1" data-name="Layer 1" viewBox="0 0 571.49 219.26"><defs><style>.cls-1{fill:#1d5e36;}.cls-2{fill:#205e37;}.cls-3{fill:#1e5e36;}.cls-4{fill:#adbbad;}.cls-5{fill:#696a6c;}.cls-6{fill:#fcf7e4;}.cls-7{fill:#4574b9;}.cls-8{fill:#231f20;}.cls-9{fill:#fdf8e5;}.cls-10{fill:#cb2027;}.cls-11{fill:#fbf6e4;}.cls-12{fill:#252223;}.cls-13{fill:#fff;}.cls-14{fill:#fcf7e5;}.cls-15{fill:#fefefe;}.cls-16{fill:#fbf7e4;}.cls-17{fill:#faf6e3;}.cls-18{fill:#f0f3f0;}.cls-19{fill:#f9df00;}.cls-20{fill:#242122;}.cls-21{fill:#262324;}.cls-22{fill:#145835;}.cls-23{fill:#262223;}.cls-24{fill:#12512c;}.cls-25{fill:#4574b8;}.cls-26{fill:#4674b8;}.cls-27{fill:#363534;}.cls-28{fill:#252122;}.cls-29{fill:#d9d6d3;}.cls-30{fill:#a8aab8;}.cls-31{fill:#c4c3b9;}.cls-32{fill:#e08f71;}.cls-33{fill:#faf5e3;}.cls-34{fill:#2e2b2b;}.cls-35{fill:#221f1f;}.cls-36{fill:#252121;}</style></defs><path class="cls-1" d="M351.65,86.19c-.21,1.08-.43,2.15-.62,3.23q-1,5.85-2.08,11.7-.88,5.05-1.78,10.13c-.57,3.2-1.13,6.4-1.7,9.61-.08.45-.16.52-.64.52q-3.12,0-6.26,0c-.5,0-.59-.08-.68-.61l-1.32-7.52c-.6-3.38-1.19-6.75-1.79-10.13-.53-3-1.07-6-1.6-9l-1.32-7.52a8.24,8.24,0,0,0-.23-.84c-.23.15-.1.36-.13.53a4.68,4.68,0,0,0,0,.53q0,16.56,0,33.13c0,1.63.22,1.4-1.39,1.41s-3.33,0-5,0c-.25,0-.5,0-.74,0-.45,0-.51-.07-.52-.49s0-.56,0-.84V75c0-1.28-.12-1.15,1.12-1.15h10.3a2.66,2.66,0,0,1,1.05.08,7.34,7.34,0,0,1,.4,2c.69,4.08,1.33,8.16,2,12.24.6,3.67,1.22,7.33,1.82,11,.46,2.76.91,5.51,1.36,8.27.08.07.08.17.1.27a.29.29,0,0,1,.1-.26c.21-1.18.43-2.36.63-3.55.48-2.85.94-5.71,1.41-8.57s.91-5.58,1.37-8.37.89-5.52,1.35-8.27c.24-1.46.49-2.93.74-4.39,0-.1.05-.2.07-.29a.77.77,0,0,1,.52-.12h11.46c.46,0,.51.06.52.47s0,.57,0,.85v27.06c0,6,0,11.89,0,17.83,0,.32,0,.64,0,1a.31.31,0,0,1-.33.33h-7.43c-.44,0-.51-.08-.52-.48s0-.56,0-.85V87.47c0-.42,0-.85,0-1.27-.14-.17,0-.39-.11-.57C351.74,85.82,351.8,86,351.65,86.19Z"></path><path class="cls-1" d="M440,107.4h3.51c.56,0,.57,0,.57.62,0,.85,0,1.7,0,2.55a6.7,6.7,0,0,0,.21,1.79,3.42,3.42,0,0,0,2.78,2.72,6.8,6.8,0,0,0,2.84,0,3.52,3.52,0,0,0,3.06-3.09,8.87,8.87,0,0,0-1.72-7.1,17.63,17.63,0,0,0-2.64-2.75c-1.06-.88-2.15-1.74-3.24-2.58A49.2,49.2,0,0,1,441.12,96a23.26,23.26,0,0,1-2.67-3,12.78,12.78,0,0,1-2.53-7.72,16.3,16.3,0,0,1,.33-3.69,10,10,0,0,1,7.26-7.71,18.64,18.64,0,0,1,5.66-.72,17.46,17.46,0,0,1,5.13.71,9.64,9.64,0,0,1,6.66,6.3,11.48,11.48,0,0,1,.64,3.11c.08,1.13,0,2.26.07,3.39a.34.34,0,0,1-.38.39h-6.9c-.25,0-.5,0-.74,0a.27.27,0,0,1-.26-.28c0-.67,0-1.34,0-2a8.69,8.69,0,0,0-.19-1.9,3.36,3.36,0,0,0-2.77-2.73,6.51,6.51,0,0,0-3,.07,3.27,3.27,0,0,0-2.5,2.61,7.53,7.53,0,0,0,.75,5.44,11.08,11.08,0,0,0,1.64,2.22A31.63,31.63,0,0,0,451,93.79c1.3,1,2.63,2,3.92,3.08a27.8,27.8,0,0,1,3.34,3.26,13.59,13.59,0,0,1,3.29,6.44,16.35,16.35,0,0,1-.28,7.77,9.78,9.78,0,0,1-5.59,6.41,14.49,14.49,0,0,1-4.18,1.14,22.27,22.27,0,0,1-5.71,0,14.37,14.37,0,0,1-4.08-1.12,9.64,9.64,0,0,1-5.5-6.74,14.31,14.31,0,0,1-.44-3.57V107.8a.34.34,0,0,1,.38-.39H440Z"></path><path class="cls-1" d="M262.9,97.59V75.19c0-.28,0-.56,0-.85s.07-.46.51-.48c.25,0,.5,0,.74,0H285.6c1.34,0,1.21-.13,1.21,1.17,0,1.59,0,3.18,0,4.78a4.43,4.43,0,0,1,0,.63.32.32,0,0,1-.22.19c-.31,0-.63,0-.95,0H273c-1.45,0-1.31-.22-1.31,1.28v10.3c0,1,0,.95.91.95h10.51c.57,0,.59,0,.6.61v5.62a1.48,1.48,0,0,1,0,.21c0,.21-.1.34-.31.35H272a.32.32,0,0,0-.32.34,3,3,0,0,0,0,.43v13.06c0,.14,0,.28,0,.42a.28.28,0,0,0,.28.26q.48,0,1,0h12.74c1.25,0,1.14,0,1.14,1.15q0,2.39,0,4.77c0,.91,0,.91-.95.92H264.1c-1.34,0-1.2.11-1.2-1.19Q262.89,108.9,262.9,97.59Z"></path><path class="cls-1" d="M408.28,97.61V75c0-1.28-.11-1.14,1.13-1.14h21.65a8,8,0,0,1,.85,0,.31.31,0,0,1,.2.2,1.53,1.53,0,0,1,0,.43q0,2.76,0,5.52c0,.62,0,.63-.67.63-1.91,0-3.82,0-5.73,0h-8.28c-.25,0-.41.09-.41.36,0,.1,0,.21,0,.32V92.51c0,.14,0,.28,0,.42a.26.26,0,0,0,.27.26h11.36a.32.32,0,0,1,.34.32,4.7,4.7,0,0,1,0,.53q0,2.55,0,5.1a4.78,4.78,0,0,1,0,.53.31.31,0,0,1-.34.31H418.07c-1.1,0-1-.11-1,1v12.53c0,.21,0,.42,0,.63a.32.32,0,0,0,.32.34l1,0H431c.32,0,.63,0,1,0,.08,0,.17.12.21.2a.84.84,0,0,1,0,.32c0,1.91,0,3.82,0,5.73,0,.48-.07.53-.56.54h-22.5c-.79,0-.8,0-.8-.85Q408.27,109.08,408.28,97.61Z"></path><path class="cls-1" d="M375.46,114.42a2.12,2.12,0,0,0,1.16.14h12.53c.41,0,.93-.17,1.23.11s.13.87.14,1.32c0,1.41,0,2.83,0,4.24V121c0,.24-.11.4-.37.41H367a.34.34,0,0,1-.34-.34c0-.24,0-.49,0-.74V75c0-.21,0-.42,0-.63,0-.41.07-.46.51-.48h22.19c1.32,0,1.16-.15,1.16,1.21,0,1.52,0,3,0,4.56,0,.25,0,.5,0,.75a.25.25,0,0,1-.25.27c-.32,0-.64,0-1,0h-13c-1,0-.92-.06-.92.92V92.74c0,.39.07.45.42.46h11.4a.83.83,0,0,1,.19.66v5.42c0,.1,0,.21,0,.31,0,.25-.11.4-.38.4H375.79c-.27,0-.36.16-.37.4v13.27C375.42,113.94,375.44,114.18,375.46,114.42Z"></path><path class="cls-1" d="M235.54,97.59q0-11.27,0-22.51c0-1.35-.13-1.22,1.17-1.22h21.66a.31.31,0,0,1,.34.31,4.7,4.7,0,0,1,0,.53q0,2.55,0,5.1c0,.18,0,.35,0,.53a.32.32,0,0,1-.34.32h-13.7a.31.31,0,0,0-.32.33c0,.11,0,.21,0,.32V93.22a1.53,1.53,0,0,0,0,.43.29.29,0,0,0,.2.19,8,8,0,0,0,.85,0h9.23c1,0,1,0,1,1v4.89c0,.21,0,.42,0,.63a.27.27,0,0,1-.27.27c-.28,0-.57,0-.85,0h-8.92c-.24,0-.49,0-.74,0-.41,0-.47.08-.49.51s0,.56,0,.85V120.2c0,1.27.12,1.18-1.22,1.18h-6.47c-.22,0-.43,0-.64,0-.39,0-.47-.11-.48-.53s0-.57,0-.85Z"></path><path class="cls-1" d="M538.12,97.63v22.6c0,1.26.1,1.15-1.13,1.15h-7.21a.35.35,0,0,1-.4-.38c0-.32,0-.64,0-1v-45c0-1.34-.15-1.19,1.18-1.19,2.12,0,4.24,0,6.36,0,.25,0,.5,0,.75,0s.44.07.45.42,0,.64,0,1Z"></path><path class="cls-2" d="M288.5,62.88h20.39c1.29,0,1.2-.15,1.2,1.19,0,.43,0,.85,0,1.28a.37.37,0,0,1-.41.38H267.84c-1,0-.93,0-.93-.93,0-.49,0-1,0-1.48s.1-.42.46-.43.56,0,.85,0Z"></path><path class="cls-3" d="M513.35,61.55h21.11c.42,0,.48.06.48.51,0,.67,0,1.34,0,2a.26.26,0,0,1-.27.27l-.74,0H492.86c-1.19,0-1.08.09-1.06-1.09a3.55,3.55,0,0,1,.13-1.65,6,6,0,0,1,1.58-.07Z"></path><path class="cls-1" d="M537.42,149.74a3.13,3.13,0,0,1,1.7-2.51,2.23,2.23,0,0,1,2,0,.67.67,0,0,1,.47.65,3.6,3.6,0,0,1-1.62,3,2,2,0,0,1-2.11-.1C537.42,150.56,537.4,150.15,537.42,149.74Z"></path><path class="cls-1" d="M407.66,135.32c.06,0,.15,0,.18.09a2.57,2.57,0,0,1,.29.44,7.18,7.18,0,0,0,2.54,2.65,10.69,10.69,0,0,1,.95.66.55.55,0,0,1-.51.93,3,3,0,0,1-.5-.18,23.42,23.42,0,0,1-2.64-1.35c-.23-.15-.46-.33-.68-.5a1.1,1.1,0,0,1-.41-1.23c.12-.44.29-.87.45-1.29A.34.34,0,0,1,407.66,135.32Z"></path><path class="cls-1" d="M373.53,145.47c-.07.21-.29.28-.43.43s-.29,0-.25-.25.2-.37.42-.45Z"></path><path class="cls-1" d="M446.31,147.1a3.85,3.85,0,0,1,.27-.3.28.28,0,0,1,.19,0c.12.06.08.18,0,.27a4.15,4.15,0,0,1-.24.34Z"></path><path class="cls-1" d="M484.53,147.1a4,4,0,0,1,.28-.3.26.26,0,0,1,.19,0c.12.06.07.18,0,.27a2.54,2.54,0,0,1-.23.34Z"></path><path class="cls-1" d="M376.34,145.72a.39.39,0,0,1-.25.38l-.23-.21a.42.42,0,0,1,.36-.29l.1,0Z"></path><path class="cls-1" d="M317.83,115.72c0-2.84,0-5.67,0-8.5a24.24,24.24,0,0,0-.22-3.07,10.61,10.61,0,0,0-.76-2.86A6.7,6.7,0,0,0,313,97.53a3.07,3.07,0,0,1-.87-.38,1.89,1.89,0,0,1,.82-.45,7.57,7.57,0,0,0,4.1-4.62,9.65,9.65,0,0,0,.58-2.9c0-1.84,0-3.68,0-5.52a10.76,10.76,0,0,0-.25-2.11A8.53,8.53,0,0,0,312,75l-.8-.28a18.89,18.89,0,0,0-5.64-.84H292.29c-.44,0-.49.07-.51.48,0,.18,0,.36,0,.53V121a.36.36,0,0,0,.37.41h7.22c1.26,0,1.18.12,1.18-1.22V102.32c0-.28,0-.56,0-.84s.09-.44.46-.44q1.8,0,3.6,0a7.62,7.62,0,0,1,1.05.16,3.67,3.67,0,0,1,3.12,3,13,13,0,0,1,.24,2.85c0,2.9,0,5.8,0,8.71,0,1.06.09,2.12.16,3.18a6.21,6.21,0,0,0,.38,1.64c.25.71.25.72,1,.72h7.65c.16,0,.36.06.49-.22A12.67,12.67,0,0,1,317.83,115.72Zm-9.05-24.81A3.74,3.74,0,0,1,305.59,94a12.11,12.11,0,0,1-1.9.19c-.78,0-1.56,0-2.34,0s-.8,0-.8-.74V81.39a3.11,3.11,0,0,1,0-.43.29.29,0,0,1,.27-.27H305l.31,0a3.56,3.56,0,0,1,3.51,3.22,7.08,7.08,0,0,1,.14,1.37c0,.71,0,1.42,0,2.13s0,1.34,0,2A7.39,7.39,0,0,1,308.78,90.91Z"></path><path class="cls-1" d="M571.47,121c-.16-.51-.33-1-.47-1.52a11.62,11.62,0,0,1-.3-3c0-3,0-6,0-8.92,0-.85,0-1.7-.08-2.55a12.08,12.08,0,0,0-.78-3.5,6.75,6.75,0,0,0-4-4l-.81-.3a1.82,1.82,0,0,1,.75-.42,7.73,7.73,0,0,0,4.41-5.26,12.19,12.19,0,0,0,.45-3.35c0-1.17,0-2.34,0-3.51a15.75,15.75,0,0,0-.23-2.74,8.57,8.57,0,0,0-5.67-7l-.7-.24a18.25,18.25,0,0,0-5.44-.81q-6.59,0-13.16,0h-.32c-.35,0-.4.08-.42.47,0,.21,0,.42,0,.63V120.3c0,.25,0,.5,0,.75a.32.32,0,0,0,.34.32h8.07a.32.32,0,0,0,.32-.35c0-.32,0-.63,0-1V102.33c0-.28,0-.56,0-.85s.09-.44.44-.44c1.24,0,2.48,0,3.72,0a6.33,6.33,0,0,1,.94.15,3.68,3.68,0,0,1,3.16,3.14,12.24,12.24,0,0,1,.22,2.63c0,3,0,6,0,9a24.23,24.23,0,0,0,.19,3.18,8.48,8.48,0,0,0,.49,1.84.47.47,0,0,0,.49.33h7.64a4.64,4.64,0,0,0,.53,0C571.45,121.36,571.54,121.23,571.47,121Zm-9.79-30.31a3.8,3.8,0,0,1-3.34,3.34,9.54,9.54,0,0,1-2,.18c-.84,0-1.69,0-2.54,0a.35.35,0,0,1-.38-.4c0-.28,0-.57,0-.85V81.86c0-.25,0-.5,0-.75s.09-.43.44-.43c1.38,0,2.76,0,4.13,0a3.58,3.58,0,0,1,.73.11,3.4,3.4,0,0,1,2.95,3,11,11,0,0,1,.17,1.9q0,1.59,0,3.18A10.73,10.73,0,0,1,561.68,90.71Z"></path><path class="cls-1" d="M523.51,97.69V85.27a16.29,16.29,0,0,0-.28-3.27,10,10,0,0,0-5.73-7.43,14.77,14.77,0,0,0-3.75-1.13,23.21,23.21,0,0,0-5.71-.17,14.65,14.65,0,0,0-4.91,1.22,9.87,9.87,0,0,0-5.63,6.4,13.68,13.68,0,0,0-.59,4v25.47a14.46,14.46,0,0,0,.43,3.47,9.93,9.93,0,0,0,5.66,6.88,14.67,14.67,0,0,0,4.27,1.19,21.83,21.83,0,0,0,5.71,0,15.06,15.06,0,0,0,4.28-1.14,9.91,9.91,0,0,0,5.76-6.67,14.43,14.43,0,0,0,.49-4Zm-8.77-.07v12.62a8.35,8.35,0,0,1-.2,2.11,3.55,3.55,0,0,1-2.9,2.75,6.78,6.78,0,0,1-2.73,0,3.58,3.58,0,0,1-3.09-3.19,13.48,13.48,0,0,1-.13-1.9q0-12.42,0-24.83a13.61,13.61,0,0,1,.12-1.8,3.56,3.56,0,0,1,3-3.27,6.71,6.71,0,0,1,3.15.08,3.45,3.45,0,0,1,2.56,2.57,7.44,7.44,0,0,1,.23,2.1V97.62Z"></path><path class="cls-1" d="M492.85,85.9a17.27,17.27,0,0,0-.21-3,9.63,9.63,0,0,0-6.77-8.2,15.38,15.38,0,0,0-4.89-.85c-4.49,0-9,0-13.48,0-.58,0-.6,0-.61.59,0,.29,0,.57,0,.85V120c0,.29,0,.57,0,.85s.1.51.48.53.5,0,.74,0c1.84,0,3.68,0,5.52,0a6.65,6.65,0,0,0,1.89-.09,4.74,4.74,0,0,0,.12-2c0-5.52,0-11,0-16.56,0-.7,0-.7.71-.71h.95a47.68,47.68,0,0,0,4.78-.12,15.34,15.34,0,0,0,4.52-1,9.39,9.39,0,0,0,5.79-6.72,13.8,13.8,0,0,0,.44-3.57C492.84,89,492.83,87.46,492.85,85.9Zm-8.79,4.43a13.46,13.46,0,0,1-.12,1.79,3.15,3.15,0,0,1-3.15,3c-1.59.09-3.18,0-4.77,0-.27,0-.37-.15-.37-.4s0-.5,0-.74V81.83c0-.28,0-.57,0-.85a.27.27,0,0,1,.24-.29h.21c1.38,0,2.76,0,4.14,0a5.06,5.06,0,0,1,.94.13,3.14,3.14,0,0,1,2.74,2.94,13.34,13.34,0,0,1,.12,1.79C484.08,87.14,484.08,88.73,484.06,90.33Z"></path><path class="cls-1" d="M500.06,147.74c.18,0,.24.13.29.27h0C500.41,147.76,500.33,147.65,500.06,147.74Z"></path><path class="cls-1" d="M510.7,142.06l.24.24a.94.94,0,0,1-.63.54A.9.9,0,0,1,510.7,142.06Z"></path><path class="cls-1" d="M522.15,141.6l.26.26-.46.61c-.2.06-.29,0-.24-.22S521.92,141.76,522.15,141.6Z"></path><path class="cls-1" d="M521.71,142.25a.28.28,0,0,0,.24.22c-.1.13-.19.27-.29.39s-.16.15-.25.06a.22.22,0,0,1,0-.18C521.48,142.57,521.52,142.36,521.71,142.25Z"></path><path class="cls-1" d="M501.8,144l-.25-.25a.71.71,0,0,1,.26-.16,1,1,0,0,1,.29,0,2.21,2.21,0,0,1-.12.27A.52.52,0,0,1,501.8,144Z"></path><path class="cls-4" d="M516.65,135.47l-.25,0a1.37,1.37,0,0,1,.17-.23c.06-.05.16-.19.24,0s0,.17-.07.26S516.68,135.45,516.65,135.47Z"></path><path class="cls-1" d="M536.51,146.71l-1.51.91a10.1,10.1,0,0,1-2.52,1.1,5.4,5.4,0,0,1-2,.16,1.49,1.49,0,0,1-1-.52,1.28,1.28,0,0,1-.24-1.2c.08-.32.42-.35.67-.44a24.51,24.51,0,0,0,3.77-1.69,5.37,5.37,0,0,0,1.36-1,3.17,3.17,0,0,0,.88-1.89,1.27,1.27,0,0,0-1-1.51,3.28,3.28,0,0,0-.63-.06,6.41,6.41,0,0,0-2.9.55,7.85,7.85,0,0,0-4.72,5.12.79.79,0,0,1-.31.52,21,21,0,0,1-2.43,1.51,4.86,4.86,0,0,1-1.61.5,1.44,1.44,0,0,1-1.74-1.3,4.18,4.18,0,0,1,0-1.06,1.75,1.75,0,0,1,.59-1.19c.59-.51,1.13-1.07,1.68-1.62a26.24,26.24,0,0,0,2.88-3.26,10.49,10.49,0,0,0,1.93-4.88,4.53,4.53,0,0,0,0-.74.65.65,0,0,0-1-.6,4.66,4.66,0,0,0-1.24.81,26.6,26.6,0,0,0-3.82,3.83,16,16,0,0,0-3.6,7.35,1,1,0,0,1-.57.82c-.31.16-.61.36-.92.53a3,3,0,0,1-1.09.39c-.32,0-.68.1-.86-.2s.16-.43.29-.63a13.12,13.12,0,0,0,1.38-2.62,3.2,3.2,0,0,0,.18-1.56.76.76,0,0,0-.82-.68,2.44,2.44,0,0,0-1.11.31,5.79,5.79,0,0,0-2.66,3.18,1.54,1.54,0,0,0,0,1.34.64.64,0,0,1-.14.85,3.09,3.09,0,0,1-.81.68,1.17,1.17,0,0,1-1.79-.68,2,2,0,0,1,.55-2.39c1.63-1.57,3.27-3.13,4.89-4.72a26.7,26.7,0,0,0,3.23-3.8,12.1,12.1,0,0,0,1.41-2.6,2,2,0,0,0,.15-1.14.83.83,0,0,0-.81-.69,2,2,0,0,0-.73.14,7.54,7.54,0,0,0-1.4.75,29.05,29.05,0,0,0-5,4.25,20.62,20.62,0,0,0-3.13,4.39,13.56,13.56,0,0,0-1.16,3.07c-.09.41-.15.84-.22,1.26a.61.61,0,0,1-.25.44,21.81,21.81,0,0,1-2.55,1.71,1.57,1.57,0,0,1-1.12.21.75.75,0,0,1-.66-.82,1.79,1.79,0,0,1,.43-1.06c.49-.61,1-1.21,1.46-1.83.73-.94.73-1.23.05-2.22l.08-.07c.71-.45.77-.73.26-1.3a1.67,1.67,0,0,0-1.2-.59,3.77,3.77,0,0,0-.95.06,18.6,18.6,0,0,0-7.94,3.61,5.26,5.26,0,0,0-1.58,1.83,1.1,1.1,0,0,1-.38.5,23.38,23.38,0,0,1-3.36,2,6,6,0,0,1-1.11.35.78.78,0,0,1-.83-.52,1.69,1.69,0,0,1-.08-1,6.29,6.29,0,0,1,.49-1.4,18.59,18.59,0,0,1,1.47-2.46,1.45,1.45,0,0,1,1.54-.84,2.76,2.76,0,0,0,.64,0,2.18,2.18,0,0,0,1.8-1.14c.27-.5.56-1,.84-1.48.09-.17.27-.32.16-.55-.39-.3-.9-.09-1.37-.33.28-.4.55-.76.78-1.15.33-.55.12-1-.53-1a2.07,2.07,0,0,0-1.77.54,10.5,10.5,0,0,0-1,1.13c-.65.87-.5.77-1.44.83l-.64.08a3.46,3.46,0,0,0-2.41,1.58c-.27.41-.55.82-.81,1.24-.07.1-.2.22,0,.35.6,0,1.2-.08,1.8-.1.15,0,.36-.06.44.22a9.6,9.6,0,0,1-1.95,2.18l-1.33,1.06c-.49.39-.53.58-.25,1.35l.88-.58c.21,0,.39,0,.27.27s-.27.65-.38,1a4.44,4.44,0,0,0-.28,1.87,1.64,1.64,0,0,0,1.68,1.57,3.84,3.84,0,0,0,.83-.09,7.9,7.9,0,0,0,2.41-1.07,35.35,35.35,0,0,0,2.92-2.1c.25-.19.45-.45.79-.49.2.45.38.91.6,1.35a3.67,3.67,0,0,0,.86,1.2,1.31,1.31,0,0,0,1.56.25,9.27,9.27,0,0,0,1.1-.64,34,34,0,0,0,3.17-2.46,3.87,3.87,0,0,1,.32-.37c.07-.06.17-.12.26,0a.22.22,0,0,1,0,.18c-.09.17-.1.4-.31.49h0c-.12.3-.27.58-.36.88a5.44,5.44,0,0,0-.29,1.24,1.32,1.32,0,0,0,1.69,1.46,3.44,3.44,0,0,0,1-.38,18.87,18.87,0,0,0,1.7-1.09c.76-.56,1.49-1.18,2.25-1.77.15-.11.26-.36.54-.2a4.69,4.69,0,0,0,.1.62,10,10,0,0,0,.41,1.42,1.6,1.6,0,0,0,1.67,1.05,3.73,3.73,0,0,0,1.53-.39,8.14,8.14,0,0,0,1.93-1.29,1.61,1.61,0,0,1,1.43-.47,4.62,4.62,0,0,0,3.05-.65,1.78,1.78,0,0,1,.86-.39c.14.55.23,1.11.42,1.63a2.06,2.06,0,0,0,2.17,1.52,4,4,0,0,0,1.82-.49,18.67,18.67,0,0,0,3-1.93l1-.75a3.21,3.21,0,0,1,.32,1.06,2.75,2.75,0,0,0,1.82,2,4,4,0,0,0,1.78.15,8.72,8.72,0,0,0,2.87-1.06c1-.57,1.93-1.3,2.9-2A1.24,1.24,0,0,0,536.51,146.71Zm-4.43-4.11a1.68,1.68,0,0,1,1.19-.35.27.27,0,0,1,.24.3.85.85,0,0,1-.23.58,7.06,7.06,0,0,1-.67.67,11.33,11.33,0,0,1-3.05,1.76A6.82,6.82,0,0,1,532.08,142.6Zm-9.93-1a10.77,10.77,0,0,1,3-3.87h0c.08-.15.18-.15.21,0a.29.29,0,0,1-.18.3,12.65,12.65,0,0,1-2.76,3.81C522.2,141.9,522.08,141.84,522.15,141.6Zm-11.45.46a27.16,27.16,0,0,1,5.7-6.62.16.16,0,0,1,.25,0,.26.26,0,0,1-.07.19.34.34,0,0,1-.15.22,28.34,28.34,0,0,1-5.49,6.42C510.74,142.34,510.64,142.28,510.7,142.06ZM501.8,144a33.2,33.2,0,0,1-4.45,3.93,5.83,5.83,0,0,1-1.36.81,2.66,2.66,0,0,1-.61.13.34.34,0,0,1-.38-.31,2.16,2.16,0,0,1,.57-1.95,5.41,5.41,0,0,1,1.2-.87,19.81,19.81,0,0,1,4.78-2C501.78,143.67,501.84,143.77,501.8,144Z"></path><path class="cls-1" d="M525.17,138.05a.24.24,0,0,0,0-.32h0Z"></path><path class="cls-1" d="M516.43,135.88c0-.12,0-.2.15-.22A.2.2,0,0,1,516.43,135.88Z"></path><path class="cls-1" d="M475.68,147.31a.83.83,0,0,0-.1-.54,6.57,6.57,0,0,0-1.26.73,10.78,10.78,0,0,1-2.8,1.24,5.2,5.2,0,0,1-2,.13,1.31,1.31,0,0,1-1.09-.75c-.29-.68-.2-1.18.55-1.41a19.91,19.91,0,0,0,3.87-1.71,5.16,5.16,0,0,0,1.34-1,3,3,0,0,0,.83-2.12,1.15,1.15,0,0,0-.7-1.09,1.93,1.93,0,0,0-.82-.19,6.43,6.43,0,0,0-2.5.35,8,8,0,0,0-5.25,5.29c-.06.19-.05.42-.26.55a14.7,14.7,0,0,1-2.67,1.52,2.16,2.16,0,0,1-1,.15.62.62,0,0,1-.57-.55,2.11,2.11,0,0,1,.42-1.49,9.57,9.57,0,0,1,1.2-1.34c.41-.4.82-.79,1.21-1.2a1.53,1.53,0,0,0,.21-1.86c-.33-.7-.68-.86-1.57-.75s-1.54.23-2.31.32c-.26,0-.55.16-.81-.05a2.88,2.88,0,0,0,0-.41c0-.49-.34-.7-.78-.6a1.36,1.36,0,0,0-.4.14,6.3,6.3,0,0,0-2.74,3.13c-.23.62-.26,1.18.49,1.58a9.64,9.64,0,0,1-1.14,1,32.75,32.75,0,0,1-3.59,2.26,6.22,6.22,0,0,1-1.17.47c-.83.24-1.28-.12-1.33-1a3.13,3.13,0,0,1,.26-1.24,14.58,14.58,0,0,1,2.16-3.64A.77.77,0,0,1,452,143a11.12,11.12,0,0,0,1.16-.06,2,2,0,0,0,1.55-.82c.5-.72.89-1.5,1.31-2.24-.43-.45-1-.14-1.44-.46.27-.4.55-.76.78-1.16s.09-.9-.49-1a2.1,2.1,0,0,0-1.78.5,7,7,0,0,0-.86.94c-.86,1.13-.54,1-1.86,1.09a3.48,3.48,0,0,0-2.13.85,8.2,8.2,0,0,0-1.59,2.39,10,10,0,0,1,2.24-.08.28.28,0,0,1,0,.36,14.72,14.72,0,0,1-4.06,3.68,3.57,3.57,0,0,1-1.36.58c-.29.07-.66.21-.87-.08s.15-.44.24-.66.3-.64.45-1a5,5,0,0,0,.41-1.52,1.72,1.72,0,0,0-.7-1.85l.1-.21c.41-.63.31-1-.33-1.33a1.61,1.61,0,0,0-.61-.15,6,6,0,0,0-1.79.12,10.34,10.34,0,0,0-3.36,1.53,5.73,5.73,0,0,0-2.73,3.87.74.74,0,0,1-.44.56,3.09,3.09,0,0,1-1.52.38,1.2,1.2,0,0,1-.86-.36c-.34-.33-.37-.51-.11-.91s.61-.87.88-1.33.63-1.1.9-1.67a3.06,3.06,0,0,0,.29-1,.9.9,0,0,0-1.34-1,2.83,2.83,0,0,0-.8.52,8.71,8.71,0,0,0-2.8,4.4,1.27,1.27,0,0,1-.4.73,13.3,13.3,0,0,1-2.37,1.77,2.51,2.51,0,0,1-.58.26.62.62,0,0,1-.88-.5,1.26,1.26,0,0,1,0-.51,3.32,3.32,0,0,1,1-2,18.71,18.71,0,0,0,1.71-1.74,8.57,8.57,0,0,0,.89-1.19,4.18,4.18,0,0,0,.44-1,.55.55,0,0,0-.38-.76,2.5,2.5,0,0,0-2.51.29,8.13,8.13,0,0,0-3.19,6.1A4.34,4.34,0,0,0,423,150c.91,1.31,1.79,1.51,3.18.71a11.66,11.66,0,0,0,1.3-.91c.53-.42,1-.88,1.52-1.32l.53-.47a2,2,0,0,1,.76.44,2.3,2.3,0,0,0,2,.28c.37-.11.73-.27,1.09-.41s.39-.3.68-.23c.14.4.25.81.41,1.2a2.83,2.83,0,0,0,3.52,1.76,5.9,5.9,0,0,0,1.74-.76c.42-.28.8-.59,1.19-.89a.74.74,0,0,1,.57-.24,5.53,5.53,0,0,0,4-1.45c.28-.21.58-.4.87-.61.21,0,.39,0,.26.27-.17.5-.35,1-.52,1.5a3.29,3.29,0,0,0-.13,1.36,1.63,1.63,0,0,0,1.68,1.56,3.39,3.39,0,0,0,.84-.1,6.17,6.17,0,0,0,1.67-.65,20.94,20.94,0,0,0,2.74-1.81c.51-.39,1-.82,1.52-1.17a13.88,13.88,0,0,0,2.75-2.31,2.3,2.3,0,0,1,1.53-.83,8.94,8.94,0,0,1,1.85-.31c0,.24-.13.35-.24.48-.45.59-.92,1.17-1.35,1.78a3.73,3.73,0,0,0-.69,2.29,2,2,0,0,0,2.69,1.92,6.31,6.31,0,0,0,1.33-.65,26.4,26.4,0,0,0,2.56-1.89,3.74,3.74,0,0,1,.53-.35.16.16,0,0,1,.24.1c.06.21.08.42.13.63a2.92,2.92,0,0,0,3.26,2.41l.42-.06a7.44,7.44,0,0,0,2.58-.91,28.83,28.83,0,0,0,3.26-2.17A.93.93,0,0,0,475.68,147.31Zm-4.54-4.68a1.92,1.92,0,0,1,1.18-.39.33.33,0,0,1,.3.45,2.49,2.49,0,0,1-.39.62,9.48,9.48,0,0,1-3.56,2.22A7,7,0,0,1,471.14,142.63ZM440,144.22c-.19.41-.39.82-.57,1.24a2.85,2.85,0,0,0-.17,2.25.48.48,0,0,1-.22.63,3,3,0,0,1-1.86.65c-.76,0-1.1-.38-1-1.14a3.2,3.2,0,0,1,.58-1.56,4.91,4.91,0,0,1,1.28-1.25A10.11,10.11,0,0,1,440,144h0l.14-.11s.08.11.08.16A.23.23,0,0,1,440,144.22Z"></path><path class="cls-1" d="M362.25,147.54c-.14-.31-.4-.34-.69-.2s-.86.47-1.3.69a3.21,3.21,0,0,1-1.41.42.74.74,0,0,1-.81-.88,2.23,2.23,0,0,1,.51-1.26c.38-.46.8-.89,1.22-1.32s.7-.7,1.05-1.05a1.66,1.66,0,0,0,0-2.38.91.91,0,0,0-.84-.35c-.31,0-.63.09-.94.11a25.08,25.08,0,0,1-2.64.28,2.93,2.93,0,0,0,.05-.35c0-.66-.34-.92-.94-.71a3,3,0,0,0-.57.28,7.07,7.07,0,0,0-2.2,2.41,2.65,2.65,0,0,0-.33,1.11.81.81,0,0,0,.34.83c.22.15.13.29,0,.43a13.88,13.88,0,0,1-4.43,2.84,5.68,5.68,0,0,1-1,.33,4.81,4.81,0,0,1-2,.08,1.33,1.33,0,0,1-1.09-1.65.36.36,0,0,1,.25-.31l.69-.27a23.29,23.29,0,0,0,3.56-1.62,5.17,5.17,0,0,0,1.35-1,3,3,0,0,0,.81-1.8,1.31,1.31,0,0,0-1.28-1.6c-.17,0-.35,0-.53,0a8,8,0,0,0-7.24,5.15,2.18,2.18,0,0,1-1.21,1.46c-.29.13-.56.31-.84.45a6,6,0,0,1-2,.73,6.06,6.06,0,0,0-1.38-2.13l2.12-2.83c1-1.37,2-2.73,3-4.1a8,8,0,0,0,1.31-2.65,4.13,4.13,0,0,0,.16-1.78c-.11-.68-.57-.87-1.15-.47a4.38,4.38,0,0,0-.77.72c-.46.54-.9,1.1-1.3,1.67-1.1,1.57-2.06,3.22-3,4.88-.26.46-.54.91-.82,1.36a6.79,6.79,0,0,1-2.72,2.46c-.28.14-.56.3-.83.47a1.35,1.35,0,0,0-.58.85,2,2,0,0,0,.31,1.9.57.57,0,0,1,0,.77,5.94,5.94,0,0,0-.27.57,23.28,23.28,0,0,0-1.16,2.73,6.5,6.5,0,0,0-.31,2.51,3.71,3.71,0,0,0,.66,1.88,1.14,1.14,0,0,0,1.47.46,10.63,10.63,0,0,0,2.69-1.47c1.87-1.55,3.18-3.42,3-6a.61.61,0,0,1,.42-.64c.6-.31,1.18-.65,1.77-1,.31-.16.55-.45.94-.5.1.41.18.83.3,1.22a2.72,2.72,0,0,0,2.25,2,5.16,5.16,0,0,0,2.8-.38,12.93,12.93,0,0,0,2.94-1.66,27.23,27.23,0,0,0,4.66-3.83,1.16,1.16,0,0,1,.74-.38c.59-.11,1.17-.26,1.76-.38a.67.67,0,0,1,.56.06l-.49.66c-.4.54-.82,1.06-1.2,1.62a3.65,3.65,0,0,0-.65,2.2,2,2,0,0,0,2.61,1.93,5.65,5.65,0,0,0,1.25-.57,17.74,17.74,0,0,0,3-2.22C361.93,148,362.43,147.94,362.25,147.54Zm-14.84-5.12a.91.91,0,0,1,1-.08c.2.13.06.62-.33,1a9.1,9.1,0,0,1-3.28,2.07s-.06,0-.14-.09A6.26,6.26,0,0,1,347.41,142.42ZM336,151.3a5.4,5.4,0,0,1-2.51,4.1,3.08,3.08,0,0,1-.46-2.55,7.87,7.87,0,0,1,1-2.53.39.39,0,0,1,.45-.19c.24,0,.48.11.72.15C336.05,150.41,336.05,150.41,336,151.3Z"></path><path class="cls-1" d="M283.94,136.71a5.67,5.67,0,0,0-3.42-3.78,11.66,11.66,0,0,0-3.81-.86,27.64,27.64,0,0,0-8.1.79,20.91,20.91,0,0,0-3.6,1.22c-1.88.82-2.44,2.44-2.61,4.28-.06.67.26,1,1,1a5,5,0,0,0,1.58-.16q1.63-.44,3.27-.9a.88.88,0,0,0,.56-.27.28.28,0,0,0,.07-.19.22.22,0,0,0-.17-.23l-1.36-.11a12.24,12.24,0,0,1,5.06-1.18,1.58,1.58,0,0,1-.11.28c-1.46,1.73-2.9,3.47-4.38,5.19-1,1.2-2.06,2.42-3,3.72a9.79,9.79,0,0,0-1.22,2.22,5.23,5.23,0,0,0-.36,2.07,1.36,1.36,0,0,0,1.18,1.42,4.83,4.83,0,0,0,1.26.15,22.24,22.24,0,0,0,5.14-.62,25.7,25.7,0,0,0,7.29-2.79,14.3,14.3,0,0,0,4.55-3.92A7.91,7.91,0,0,0,283.94,136.71Zm-2.48,5.76a7.17,7.17,0,0,1-1.27,1.42,14,14,0,0,1-3.85,2.41,19.3,19.3,0,0,1-7.47,1.74c-.53,0-1.06,0-1.59,0a1.29,1.29,0,0,1-.6-.17.58.58,0,0,1-.31-.8,5.15,5.15,0,0,1,.49-.93c.49-.69,1-1.37,1.53-2,1.63-2,3.26-4,4.9-6a4.41,4.41,0,0,0,.79-1.48c.14-.45.19-.48.57-.45a24.49,24.49,0,0,1,4.52.55,7.49,7.49,0,0,1,1.67.64,2.61,2.61,0,0,1,1.44,2.52A4.93,4.93,0,0,1,281.46,142.47Z"></path><path class="cls-1" d="M392.42,146.87c-.27-.17-.49.15-.71.27-.41.22-.79.48-1.19.7a9.38,9.38,0,0,1-2.15.89,5.72,5.72,0,0,1-1.89.16,1.49,1.49,0,0,1-.88-.33,1.29,1.29,0,0,1-.45-1.33c.06-.42.43-.42.71-.52a25.46,25.46,0,0,0,3.77-1.7,5.18,5.18,0,0,0,1.42-1.09,2.94,2.94,0,0,0,.76-2.14,1.12,1.12,0,0,0-.65-1,2.29,2.29,0,0,0-1-.21,8,8,0,0,0-7.44,5.31,1.94,1.94,0,0,1-1,1.25c-.51.26-1,.56-1.5.8a8.41,8.41,0,0,1-1.19.42,1.25,1.25,0,0,1-.74,0,.66.66,0,0,1-.52-.7,2.08,2.08,0,0,1,.41-1.18,12.47,12.47,0,0,1,1.38-1.61c.41-.44.81-.89,1.19-1.36a1,1,0,0,0,.1-1.19c-.19-.34-.38-.68-.6-1s-.44-.4-.8-.17c-.65.43-1.29.87-1.91,1.34-1.33,1-2.64,2-4,3a1.5,1.5,0,0,0-.42.21c-.07.06-.13.13-.21.19h-.07l.06,0,.12-.13a1,1,0,0,0,.26-.52l1.15-1.78a3.52,3.52,0,0,0,.5-1.16,1.17,1.17,0,0,0-1.47-1.55,4,4,0,0,0-.9.3,7.79,7.79,0,0,0-1,.6,19.79,19.79,0,0,0-2.46,2l-2.81,2.74c-.28.27-.58.52-.88.76a.3.3,0,0,1-.29,0,.38.38,0,0,1-.07-.29,1.69,1.69,0,0,1,.43-.95c.33-.41.68-.81,1-1.2s.85-.85,1.26-1.29a3.69,3.69,0,0,0,.52-.66.64.64,0,0,0-.46-1,2.56,2.56,0,0,0-1.26,0,3.75,3.75,0,0,0-1.56.86,7.21,7.21,0,0,0-1.95,2.74c-.16.39-.24.82-.43,1.19s-.81.4-1.07.81c.64.19.63.19.35.77a.65.65,0,0,0,0,.2c.19,0,.32-.29.56-.19.09.42.15.85.27,1.25a3.34,3.34,0,0,0,.39.86,1.16,1.16,0,0,0,1.82.31,4.85,4.85,0,0,0,.61-.59c.36-.39.7-.8,1-1.21a40.73,40.73,0,0,1,3-3.27,3.64,3.64,0,0,1,1.09-.82.2.2,0,0,1,.18,0,.23.23,0,0,1,0,.19c-.18.3-.37.6-.57.89a22.59,22.59,0,0,0-1.59,2.51,3.15,3.15,0,0,0-.4,1.41,1.17,1.17,0,0,0,1.65,1.18,3.06,3.06,0,0,0,1-.57,19.11,19.11,0,0,0,1.5-1.34,34.94,34.94,0,0,1,3.36-3.08.55.55,0,0,1,.27-.12l.08-.05,0,.09a1,1,0,0,1-.08.29l-1.15,1.9a4.08,4.08,0,0,0-.48,1.4,1.58,1.58,0,0,0,2,1.84,17,17,0,0,0,1.75-.74c1.13-.6,2.2-1.29,3.26-2a2,2,0,0,1,.79-.45c.18.1.14.25.17.38s.05.35.09.52a2.91,2.91,0,0,0,3.29,2.36,3,3,0,0,0,.42-.06,7.27,7.27,0,0,0,2.48-.87,27,27,0,0,0,3.44-2.29l.08-.07C392.46,147.82,392.63,147,392.42,146.87Zm-4.57-4.18a2,2,0,0,1,1.28-.45.34.34,0,0,1,.3.44,1.66,1.66,0,0,1-.45.71,8.54,8.54,0,0,1-3.31,2A5.81,5.81,0,0,1,387.85,142.69Z"></path><path class="cls-1" d="M372.85,145.65a.3.3,0,0,0,.25.25.44.44,0,0,1-.38.24h-.09l0-.09A.49.49,0,0,1,372.85,145.65Z"></path><path class="cls-1" d="M372.72,146.14l-.16.06a1,1,0,0,1,.05-.16Z"></path><path class="cls-1" d="M376.22,145.6s.12-.1.14-.08,0,.14,0,.2Z"></path><path class="cls-1" d="M324,146.82c-.31,0-.48.18-.68.31l-1.75,1.19a2.36,2.36,0,0,1-1.19.43.84.84,0,0,1-.91-1.17,3,3,0,0,1,.58-1c.4-.49.82-1,1.21-1.48.82-1,.83-1.24.13-2.3l.08-.08c.72-.48.76-.78.17-1.37a1.78,1.78,0,0,0-1.14-.52,3.91,3.91,0,0,0-.84,0,18.51,18.51,0,0,0-8.28,3.85,4.53,4.53,0,0,0-1.29,1.53,1.51,1.51,0,0,1-.52.65,18,18,0,0,1-2.26,1.39,4.62,4.62,0,0,1-1.61.49,1.44,1.44,0,0,1-1.73-1.32,4.11,4.11,0,0,1,0-1.16,1.51,1.51,0,0,1,.5-1c.61-.55,1.18-1.13,1.76-1.7a26.24,26.24,0,0,0,2.88-3.26,10.69,10.69,0,0,0,1.92-4.88,3.7,3.7,0,0,0,0-.74.65.65,0,0,0-1-.58,4.91,4.91,0,0,0-1.32.88,27.62,27.62,0,0,0-4,4.09,17.24,17.24,0,0,0-2.72,4.77,10.82,10.82,0,0,0-.75,4,5.24,5.24,0,0,0,.46,2.06,2,2,0,0,0,1.84,1.22,3.92,3.92,0,0,0,1.75-.35,15.61,15.61,0,0,0,2.47-1.44c.63-.45,1.25-.92,2-1.44l.41,1a5.3,5.3,0,0,0,.88,1.44,1.4,1.4,0,0,0,1.9.37,9.84,9.84,0,0,0,1.78-1.15c.75-.58,1.49-1.19,2.24-1.78.12-.09.22-.28.44-.16.05.34-.19.59-.29.88a4.58,4.58,0,0,0-.38,1.54,1.32,1.32,0,0,0,1.85,1.45,6.4,6.4,0,0,0,1.24-.59,31.38,31.38,0,0,0,3.81-2.87.67.67,0,0,0,.29-.54C324,147.31,324,147.06,324,146.82Zm-19.14-4.17a.63.63,0,0,1,.28-.4c.15-.21.2-.49.43-.65a11,11,0,0,1,3-3.87h0c.09-.15.19-.15.22,0a.29.29,0,0,1-.19.3,12.8,12.8,0,0,1-2.75,3.81h0l-.47.61a3.58,3.58,0,0,1-.29.39c-.06.07-.16.15-.24.06S304.81,142.74,304.83,142.65Zm14,1.4a35.54,35.54,0,0,1-4.27,3.77,12.51,12.51,0,0,1-1.25.79,2.36,2.36,0,0,1-.69.24.45.45,0,0,1-.57-.46,2.21,2.21,0,0,1,.71-1.9,5.39,5.39,0,0,1,.59-.45,20.26,20.26,0,0,1,5.87-2.49C319,143.83,318.9,144,318.8,144.05Z"></path><path class="cls-1" d="M308.56,138.05a.22.22,0,0,0,0-.32h0Z"></path><path class="cls-1" d="M414.28,146.83c-.33,0-.52.28-.75.43-.54.35-1,.71-1.58,1.07a2.44,2.44,0,0,1-1.19.42.83.83,0,0,1-.93-1.08,2,2,0,0,1,.36-.76c.32-.42.65-.83,1-1.25s.59-.71.84-1.09a1.1,1.1,0,0,0,0-1.46,3.25,3.25,0,0,1-.24-.32c.55-.35.71-.5.7-.67a1.23,1.23,0,0,0-.45-.81,1.67,1.67,0,0,0-1.14-.49,4.3,4.3,0,0,0-.95.08,18.72,18.72,0,0,0-7.84,3.56,6.37,6.37,0,0,0-1.27,1.27,2.42,2.42,0,0,0-.49,1.05,4.58,4.58,0,0,0,1.43,3.83,1.26,1.26,0,0,0,1.57.21,8.73,8.73,0,0,0,1.18-.7c.86-.63,1.69-1.29,2.53-1.93a2.61,2.61,0,0,1,.84-.59c.15.24,0,.41-.12.59a8.37,8.37,0,0,0-.51,1.61c-.21,1.43.68,2.17,2,1.67a6.52,6.52,0,0,0,1.31-.68c1.15-.71,2.14-1.62,3.22-2.42A1.26,1.26,0,0,0,414.28,146.83Zm-5.63-2.22a31,31,0,0,1-3.84,3.3,10.81,10.81,0,0,1-1.26.76,1.81,1.81,0,0,1-.6.18.43.43,0,0,1-.52-.4,2.15,2.15,0,0,1,.67-1.92,9.38,9.38,0,0,1,1.21-.85,19.05,19.05,0,0,1,4.66-1.94.34.34,0,0,1,.45,0A3.15,3.15,0,0,1,408.65,144.61Z"></path><path class="cls-1" d="M409.42,143.75H409a.5.5,0,0,1,.43-.19s.09.06.13.09Z"></path><path class="cls-1" d="M293.42,146.73l-1.13.68a10.45,10.45,0,0,1-2.88,1.32,5.72,5.72,0,0,1-1.89.16,1.57,1.57,0,0,1-1-.39,1.33,1.33,0,0,1-.37-1.27c.06-.42.43-.42.71-.52a25.51,25.51,0,0,0,3.77-1.69,5.42,5.42,0,0,0,1.42-1.1,3,3,0,0,0,.77-2.14,1.13,1.13,0,0,0-.66-1,2,2,0,0,0-1-.21,7.92,7.92,0,0,0-7.09,4.43,5.53,5.53,0,0,0-.59,3.59,3,3,0,0,0,3.51,2.73l.21,0a7.93,7.93,0,0,0,2.58-.9,30.06,30.06,0,0,0,3.35-2.24.76.76,0,0,0,.38-.7C293.51,147.23,293.61,147,293.42,146.73Zm-4.28-4.19a2.87,2.87,0,0,1,.68-.28c.21,0,.46-.09.6.1a.54.54,0,0,1-.06.59,3.06,3.06,0,0,1-.7.78,9.5,9.5,0,0,1-1.76,1.18,4.31,4.31,0,0,1-1.36.54A7,7,0,0,1,289.14,142.54Z"></path><path class="cls-1" d="M102,18.87l.49-.43a22.81,22.81,0,0,1,3.09-2.54,8.5,8.5,0,0,1,1.32-.73,3.39,3.39,0,0,1,3,.07,8.24,8.24,0,0,1,1.33.83l2.06,1.63.52.4a12.64,12.64,0,0,1,2.78,2.48c1.8,2.07,3.44,4.28,5.05,6.49.06.07,0,0,0,.06.27.3.51.75,1,.6s.36-.65.36-1q0-3.72,0-7.44a2.11,2.11,0,0,1,.07-.79,1,1,0,0,0-.38-.59c-.53-.56-1.07-1.11-1.61-1.66-1-1.09-2-2.24-3-3.39a9.06,9.06,0,0,0-.66-.73,4.71,4.71,0,0,0-3.24-1.41,18.11,18.11,0,0,0-2.76.19c-1.18.13-2.35.33-3.54.4a2.61,2.61,0,0,1-1.08-.1.32.32,0,0,1,.22-.32,1.68,1.68,0,0,1,.38-.12c2-.47,4-.89,6.08-1.18A11.59,11.59,0,0,1,117,9.49a5.86,5.86,0,0,1,4.1,2.49,9.2,9.2,0,0,1,1.07,2.18c.08.23.16.46.25.68a2.27,2.27,0,0,0,.21.41.31.31,0,0,0,.57-.05,1.16,1.16,0,0,0,.08-.32,2.7,2.7,0,0,0-.09-1c-.16-.55-.34-1.09-.52-1.63s-.37-1-.54-1.56A2.83,2.83,0,0,1,122.05,9c0-.13,0-.27.07-.39a25.14,25.14,0,0,0,.63-3.77c.17-1.26.34-2.52.52-3.78.06-.37.17-.73.26-1.09h.39a6.78,6.78,0,0,1,.49,2c.1.92.3,1.82.48,2.72.27,1.43.45,2.87.58,4.31a6.71,6.71,0,0,1-.11,1.9,3.7,3.7,0,0,1-.45,1.24,11.21,11.21,0,0,0-1.34,3.76,2.11,2.11,0,0,0,.08,1.29,13.7,13.7,0,0,1,.28,1.42c.29.38.09.85.22,1.27.07.23.07.47.16.7.2.54.53.61.91.18a11.17,11.17,0,0,0,1-1.34,1.73,1.73,0,0,1,.56-.55c.12-.15.25-.3.37-.46a31,31,0,0,1,2.45-2.92,4.46,4.46,0,0,1,2.15-1.36,4.71,4.71,0,0,1,3.16.2c.54.24,1.06.53,1.59.8a8.53,8.53,0,0,0,2.39.9,18.46,18.46,0,0,0,2.87.36,20.53,20.53,0,0,0,2.23-.21,8.24,8.24,0,0,1,.85-.05,1.88,1.88,0,0,1,.45.12c.1,0,.11.2,0,.27a.59.59,0,0,1-.17.1,14.48,14.48,0,0,1-3.87,1.25,8.33,8.33,0,0,1-3.58-.23,12.1,12.1,0,0,0-2.31-.53,6.14,6.14,0,0,0-2.66.29,7.13,7.13,0,0,0-2.91,1.86,1.15,1.15,0,0,1-.39.6c-1.38,1.27-2.47,2.8-3.75,4.17a3.39,3.39,0,0,0-1,2.58c0,1-.1,1.94-.07,2.89,0,1.8.06,3.6.09,5.41,0,.14,0,.33.19.37s.24-.07.34-.16a3.83,3.83,0,0,0,.6-.79,13.84,13.84,0,0,1,7-5.83,3.84,3.84,0,0,1,4.49,1c2,2.43,4,4.83,5.92,7.27.3.37.63.73.92,1.11s.42.69.07,1-.65.08-.94-.14a4.1,4.1,0,0,1-.53-.49,61,61,0,0,0-4.61-4.34,8.09,8.09,0,0,0-1.69-1.14,3.18,3.18,0,0,0-3.48.37,16.37,16.37,0,0,0-3.49,3.75c-.48.68-1,1.36-1.47,2a3.29,3.29,0,0,1-1.9,1.33,1.86,1.86,0,0,0-1.48,1.91c-.18,1.89-.06,3.78-.1,5.67a1.16,1.16,0,0,0,.55,1.12,1.08,1.08,0,0,1,.51.94A13.87,13.87,0,0,0,127,55a2,2,0,0,0,.24.46.42.42,0,0,0,.72,0,1.67,1.67,0,0,0,.38-.69A8.61,8.61,0,0,0,128.7,50a5.2,5.2,0,0,1-.12-1.05.48.48,0,0,1,.28-.48c.19-.08.34,0,.48.14l.1.09c.81.7,1,.68,1.52-.32a6.52,6.52,0,0,1,2.82-3,1.9,1.9,0,0,1,3,1.21,8.64,8.64,0,0,1,.32,3.78c0,.31-.06.61-.08.92,0,.48.11.77.66.86s.71.41.36,1a28.77,28.77,0,0,1-2.13,2.68c-.13.15-.28.28-.4.44s-.44.42-.28.68.56.17.85.08a17.12,17.12,0,0,1,5.34-1,2.09,2.09,0,0,1,.78.12c.18.09.35.2.37.42s-.14.36-.32.45a7.09,7.09,0,0,1-1.24.45,15.4,15.4,0,0,0-5,2.46,10.26,10.26,0,0,0-3.19,4.53,25.88,25.88,0,0,0-1,3.22A5.45,5.45,0,0,1,129.75,71a7.14,7.14,0,0,1-1.29.66,4.93,4.93,0,0,0-2.19,2.12c-.08.13-.16.29,0,.43s.29.06.44,0a4.83,4.83,0,0,0,.8-.45,95,95,0,0,1,8.89-5c.48-.23,1-.44,1.45-.63a2.39,2.39,0,0,1,3.11.92A24.85,24.85,0,0,1,143.18,73c.83,1.75,1.51,3.57,2.33,5.32a1.94,1.94,0,0,1,.13.3c.08.28.16.59-.12.79s-.52-.08-.72-.26a38.69,38.69,0,0,1-2.63-3.21,16.24,16.24,0,0,0-2.85-2.64,2.76,2.76,0,0,0-3.48-.06,17.59,17.59,0,0,0-2.45,2c-.76.7-1.55,1.36-2.28,2.1a5.25,5.25,0,0,1-5.42,1.72c-.73-.2-.92,0-.92.82,0,4.26,0,8.53,0,12.8,0,.82-.18,1.62-.14,2.43.05,1,.32,1.32,1.37,1.33,1.21,0,2.41.13,3.62.25a6,6,0,0,0,.85,0c1.36-.06,1.72-.34,2.15-1.61s.87-2.35,1.25-3.55c.19-.64.08-.89-.54-1.11-.41-.15-.85-.21-1.27-.36a1.61,1.61,0,0,1-1.1-1.49,1.37,1.37,0,0,1,1-1.31,8.07,8.07,0,0,1,1.51-.49c2.91-.55,5.78-1.34,8.67-2,2.53-.56,5.06-1.16,7.58-1.73a6.22,6.22,0,0,1,3.61.52c3.65,1.34,7.33,2.61,11,3.87a7.48,7.48,0,0,1,1.39.6,2.27,2.27,0,0,1,.14,3.79l0,0c-1.64,1-1.35.74-1,2.45.47,2.62,1,5.23,1.49,7.84a1.73,1.73,0,0,0,.87,1.25,8.67,8.67,0,0,0,2.49,1,4.23,4.23,0,0,1,3,2.14,2.68,2.68,0,0,1,.19.42c.1.34.18.71-.16,1s-.61,0-.89-.17-.29-.2-.43-.3a4.91,4.91,0,0,0-6.44.08,12.28,12.28,0,0,0-3.87,5.47c-.39,1-.63,2-1.1,3a1.85,1.85,0,0,1-1.78,1.13l-.39,0c-.68.09-.84.3-.72,1,.17,1,.42,2,.62,3,.53,2.68,1.21,5.32,1.65,8,.17,1.05,0,1.28-1.07,1.38a21.88,21.88,0,0,1-3.62,0c-1.07-.09-1.53-.4-1.73-1.45q-1-5.19-2.05-10.36c-.15-.74,0-1,.73-1.13a5.78,5.78,0,0,1,1.71-.1,1.37,1.37,0,0,0,1.48-1c.91-2.31,2-4.54,3-6.84.66-1.58,1.29-3.18,2-4.74a7.12,7.12,0,0,0,.52-4c-.38-2.74-.66-5.5-1-8.25a1.73,1.73,0,0,0-1.21-1.56c-1.7-.6-3.4-1.19-5.15-1.63-1.06-.26-1.35,0-1.48,1.06-.19,1.5-.21,3-.29,4.53-.13,2.79-.32,5.57-.51,8.35-.06.9-.12,1.8-.15,2.7-.09,2.72-.31,5.44-.51,8.15-.06.77-.09,1.54-.17,2.3s-.35.93-1,.81a12.34,12.34,0,0,1-2.62-.62,5.64,5.64,0,0,0-1.28-.35,2.21,2.21,0,0,0-1.9.51c-.72.63-1.14.62-1.82-.05a32.9,32.9,0,0,0-3.78-3.39,21.13,21.13,0,0,0-6-2.86,23.91,23.91,0,0,0-6.11-.87c-.53,0-1.05-.11-1.58-.15s-.85-.27-.85-.93c0-1.23.22-2.45.32-3.67,0-.37.07-.75.07-1.12,0-.87-.3-1.16-1.17-1.1s-1.61.21-2.42.3c-2.21.23-4.42.35-6.63.61-1.66.19-3.33.2-5,.4l-.26,0c-1.52.23-1.7.53-1.54,2.05a26.81,26.81,0,0,1,.21,3.23c0,.39,0,.61.56.39a10.67,10.67,0,0,1,3.18-.5c3-.25,6-.32,9-.78a6,6,0,0,1,1.64,0c.31,0,.64.15.68.52s-.26.48-.53.59a12.39,12.39,0,0,1-3.29.65c-2.89.29-5.78.47-8.66.78-.51,0-1,0-1.52,0-.91,0-.91,0-.91.92a6.2,6.2,0,0,0,.08,1.61c0,.08,0,0,0,.06.25.87.25.87,1.14.78a1.92,1.92,0,0,1,.92.08c.6.21.7.68.2,1.09a3,3,0,0,1-2.52.4c-.29,0-.31-.33-.33-.58-.15-2-.26-4.07-.42-6.11-.12-1.57-.23-3.15-.32-4.73a5.07,5.07,0,0,1,1-3.42,12.18,12.18,0,0,1,1.27-1.52,5.8,5.8,0,0,1,3-1.35A50.06,50.06,0,0,1,116,97.18a42,42,0,0,1,5.37-.62c.87,0,1.07-.26,1.08-1.13,0-.46,0-.93,0-1.39a2.25,2.25,0,0,0-2.42-2.5,5.21,5.21,0,0,1-3.29-1.32A6.74,6.74,0,0,1,115.64,89c-.53-.73-1-1.47-1.54-2.22a1.45,1.45,0,0,1-.31-.65c-.07-.47.21-.72.66-.58a2.41,2.41,0,0,1,.68.39c1.77,1.23,3.49,2.53,5.22,3.82a9.08,9.08,0,0,0,1.09.74c.58.32.81.19.85-.45V80.19c0-1-.23-1.1-1.16-.72a9.63,9.63,0,0,1-2.93,1A6.69,6.69,0,0,1,114.06,79a26.83,26.83,0,0,1-2.53-2.1l-.42-.33c-1.41-1-2.25-1-3.56.13s-2.55,2.16-3.82,3.24a8.47,8.47,0,0,1-.89.69c-.32.21-.66.61-1,.31s-.1-.74.06-1.09a27.11,27.11,0,0,1,1.26-2.46l.33-.57a.69.69,0,0,0,0-.81c-.11-.32.17-.35.35-.45a17,17,0,0,0,5.37-4.37c.18-.23.33-.54.72-.46.91.73,1.82,1.46,2.74,2.17A14.52,14.52,0,0,0,121.5,76c1,0,1.38-.34,1.29-1.3-.22-2.53-.05-5.05-.1-7.58,0-1-.17-1.17-1.2-1.18a3.44,3.44,0,0,0-.85,0,3.06,3.06,0,0,1-2.67-.62,4.06,4.06,0,0,0-1.9-.83c-.21-.18-.1-.37,0-.53a19.37,19.37,0,0,0,2.14-4.7c.37-.1.56.2.79.37.57.41,1.07.91,1.65,1.31.13.1.29.26.47.12s.06-.29,0-.43a6.4,6.4,0,0,0-.69-1.56,1.25,1.25,0,0,0-.8-.54l-1.14-.3a3.25,3.25,0,0,1-2.41-2.3c-.36-1-.68-2.08-1-3.14a11,11,0,0,0-2-4.19,12.18,12.18,0,0,0-8-4.48c-.21,0-.44,0-.59-.21.05-.55,0-1.13.42-1.57.23.44.61.51,1.09.52a46.72,46.72,0,0,1,4.7.57l.33.05c.22,0,.47.06.58-.18s-.1-.36-.22-.51c-.75-.89-1.5-1.78-2.26-2.66-.2-.23-.48-.45-.36-.8s.46-.29.74-.31.54-.23.53-.6c0-1,.06-2-.07-3a4.49,4.49,0,0,1,.36-2.45,2.06,2.06,0,0,1,3.19-.89,6.74,6.74,0,0,1,1.6,1.64c.44.58.86,1.17,1.31,1.74a.72.72,0,0,0,1,.21c.6-.33.82-.18.85.53a29.14,29.14,0,0,0,.13,3.62,11,11,0,0,0,.6,2.36c.11.26.21.59.55.59s.49-.34.56-.64c.3-1.12.67-2.23.93-3.37a6,6,0,0,1,.39-1.25c.32-.73.62-.83,1.29-.44a.89.89,0,0,0,.14-.69,20.13,20.13,0,0,1,.06-3.88,4,4,0,0,0-.17-1.5c-.15-.58-.68-.58-1.14-.51a5.13,5.13,0,0,1-2.27-.23,6.25,6.25,0,0,1-3-2.31,25.81,25.81,0,0,1-1.6-2.41,30.73,30.73,0,0,0-4.49-5.85,5.92,5.92,0,0,0-1.9-1.27,4.07,4.07,0,0,0-2.51.1,10.33,10.33,0,0,0-2.84,1.77c-1.34,1-2.58,2.18-3.91,3.23-.3.23-.66.66-1,.32s.07-.73.29-1a23.81,23.81,0,0,1,2.66-3.26A4.73,4.73,0,0,1,102,18.87Z"></path><path class="cls-5" d="M0,60.85c0-.12.17-.09.25-.15a1.1,1.1,0,0,1,0,1.38L0,62Z"></path><path class="cls-6" d="M103.5,75.88c.36.16.45.3.34.57a5.29,5.29,0,0,1-.29.52A27.91,27.91,0,0,0,102,79.89a6.44,6.44,0,0,0-.25.74.21.21,0,0,0,.27.26l.24-.1a3.35,3.35,0,0,0,.44-.29l3.49-2.92c.52-.44,1-.89,1.56-1.31a2.39,2.39,0,0,1,3-.13,10.81,10.81,0,0,1,1.55,1.22c.46.44.95.84,1.46,1.24A12,12,0,0,0,116.34,80a.6.6,0,0,0,.11.06,5.44,5.44,0,0,0,2.86-.06c.6-.22,1.18-.49,1.76-.74a2.8,2.8,0,0,1,.69-.23c.49-.07.7.09.76.57,0,.16,0,.31,0,.46l0,8.38c0,.55,0,1.1,0,1.65a2.37,2.37,0,0,1,0,.46.41.41,0,0,1-.51.31,2.83,2.83,0,0,1-.6-.25,5.67,5.67,0,0,1-.76-.52c-1.86-1.37-3.7-2.77-5.59-4.08a3,3,0,0,0-.8-.46.26.26,0,0,0-.32.24.69.69,0,0,0,0,.25,3,3,0,0,0,.25.47c.55.8,1.09,1.59,1.65,2.38a7.23,7.23,0,0,0,1,1.14,4.46,4.46,0,0,0,3,1.27l.46,0a3.14,3.14,0,0,1,1.78.78,1.31,1.31,0,0,1,.49.84,2.63,2.63,0,0,1,.06.39l0,2.44a1.34,1.34,0,0,1-.07.39.55.55,0,0,1-.5.45,3.07,3.07,0,0,1-.52.06,19.59,19.59,0,0,0-3.34.33c-.81.13-1.61.25-2.42.35a35.32,35.32,0,0,0-4.76,1,7.43,7.43,0,0,1-1.23.24,2.43,2.43,0,0,0-1.32.53,8.39,8.39,0,0,0-1.76,1.76,1,1,0,0,1-.08.11,5.14,5.14,0,0,0-1.11,3,1.78,1.78,0,0,0,0,.4l.45,6.38.3,4.47c0,.11,0,.22,0,.33a.23.23,0,0,0,.2.23,3.52,3.52,0,0,0,2.19-.24.77.77,0,0,0,.46-.53.26.26,0,0,0-.14-.33,1.49,1.49,0,0,0-.63-.18,2.79,2.79,0,0,0-.91.08l-.74.2c-.14-.4,0-.83-.18-1.21-.12-.7-.12-.68.55-.63a16.41,16.41,0,0,0,5-.46,1.1,1.1,0,0,0,.76-.47,3.68,3.68,0,0,0-1.74-.07,22.11,22.11,0,0,0-4.29.56c-.3.1-.41,0-.38-.32a.75.75,0,0,0-.06-.39.61.61,0,0,0,0-.13c0-.28-.15-.62,0-.81s.5,0,.76,0c1.17,0,2.33-.11,3.49-.21,1.38-.13,2.75-.28,4.14-.36a35.59,35.59,0,0,0,5.23-.65,6.82,6.82,0,0,0,.88-.26,1.12,1.12,0,0,0,.33-.2.23.23,0,0,0,0-.39,1.31,1.31,0,0,0-.69-.19,11.87,11.87,0,0,0-1.58,0c-1.23.14-2.45.3-3.67.42-.9.09-1.8.13-2.7.17-1.5,0-3,.22-4.47.39a3.13,3.13,0,0,0-1.76.62,1.28,1.28,0,0,1-.12-.61c-.1-1.43-.2-2.86-.29-4.28,0-.18,0-.36,0-.53s.09-.35.28-.46a4,4,0,0,1,1.75-.52c1-.09,1.93-.18,2.89-.23,1.43-.09,2.85-.25,4.27-.39.63-.07,1.27-.13,1.91-.17,1.51-.1,3-.26,4.52-.48a3.59,3.59,0,0,1,1,0,.86.86,0,0,1,.86,1,26.84,26.84,0,0,1-.22,2.69c-.07.77-.14,1.54-.2,2.3a3.13,3.13,0,0,0,0,.53.21.21,0,0,0,.19.23,3.7,3.7,0,0,0,.58.1c1.18.1,2.37.18,3.55.27l1.78.15a1.61,1.61,0,0,1,.38.08c1.21.39,2.46.64,3.66,1.08a18.84,18.84,0,0,1,6.3,3.89c.63.58,1.22,1.21,1.82,1.81a3.31,3.31,0,0,0,.45.39.69.69,0,0,0,.91,0,2.5,2.5,0,0,0,.23-.23,1.77,1.77,0,0,1,1.34-.62,3.61,3.61,0,0,1,1.49.2l1,.33a5.59,5.59,0,0,0,1.09.26,8.15,8.15,0,0,1,.83.17c.13,0,.26.08.38.1.43.06.63-.08.67-.52s.09-1.14.13-1.71c.12-1.62.24-3.24.35-4.87.06-.87.11-1.75.16-2.63.1-2,.2-3.91.31-5.87.1-1.69.24-3.37.33-5.06.08-1.26.12-2.51.18-3.76,0-.92.11-1.85.24-2.76,0-.07,0-.13,0-.2a.75.75,0,0,1,.76-.68,2.7,2.7,0,0,1,1,.12c.38.1.76.22,1.13.35.54.2,1.09.34,1.64.49.76.22,1.5.49,2.24.75a2.66,2.66,0,0,1,.79.48,1.3,1.3,0,0,1,.54,1c.17,1.66.4,3.32.6,5,.17,1.48.39,3,.51,4.45a6.33,6.33,0,0,1-.41,2.65c-.06.17-.12.34-.19.49-.79,1.65-1.41,3.37-2.13,5-.61,1.44-1.25,2.86-1.89,4.28-.28.62-.57,1.24-.8,1.88a5.78,5.78,0,0,1-.31.72,1.39,1.39,0,0,1-1.27.81h-1.32a5,5,0,0,0-.78.07c-.4.06-.53.26-.46.65.13.67.28,1.33.41,2q.72,3.58,1.42,7.18c.1.53.2,1.08.33,1.61a1.22,1.22,0,0,0,1.27,1.11,27.38,27.38,0,0,0,4.15,0h.13c.52-.08.66-.25.57-.76-.23-1.2-.46-2.41-.71-3.62-.54-2.53-1.09-5.07-1.63-7.6a4.9,4.9,0,0,1-.11-.65.5.5,0,0,1,.41-.59,3.5,3.5,0,0,1,.91-.12c1.09-.07,1.31-.2,1.75-1.2a15.23,15.23,0,0,0,.69-1.85,15.31,15.31,0,0,1,1.72-3.69,9.67,9.67,0,0,1,2.77-3,6.58,6.58,0,0,1,2.27-1,4.25,4.25,0,0,1,2.59.22,7.23,7.23,0,0,1,1.59.92,3.44,3.44,0,0,0,.83.53.31.31,0,0,0,.46-.29,1.57,1.57,0,0,0-.14-.64,3.47,3.47,0,0,0-1.64-1.82,6,6,0,0,0-1.47-.56,8.12,8.12,0,0,1-3.1-1.39.52.52,0,0,1-.22-.38c-.11-.56-.23-1.12-.34-1.68-.51-2.68-1-5.35-1.54-8a.56.56,0,0,1,.25-.67c.33-.22.67-.42,1-.62a2.09,2.09,0,0,0,1-1.28,2.05,2.05,0,0,0-.94-2.32,6.47,6.47,0,0,0-1.27-.54c-1.83-.6-3.64-1.3-5.47-1.91s-3.84-1.39-5.77-2.06c-.54-.18-1.09-.34-1.64-.48a3.38,3.38,0,0,0-1.7,0c-1.26.3-2.51.62-3.78.88-.88.19-1.75.44-2.63.63s-1.92.42-2.88.65-2.18.52-3.27.78c-1.24.3-2.49.52-3.73.81-.54.12-1.06.29-1.58.46a1.11,1.11,0,0,0-.82,1,1.44,1.44,0,0,0,.87,1.48,8.32,8.32,0,0,0,1,.27,2.74,2.74,0,0,1,.75.24.66.66,0,0,1,.38.93c-.51,1.49-1,3-1.55,4.48a1.44,1.44,0,0,1-1.15,1,5.86,5.86,0,0,1-1.77.09c-1.25-.11-2.5-.19-3.76-.21a3,3,0,0,1-.78-.1.75.75,0,0,1-.56-.59,4,4,0,0,1-.08-.91c0-.84.07-1.68.08-2.51,0-1.67,0-3.34,0-5q0-3.75,0-7.52a5.72,5.72,0,0,1,0-.72c.05-.37.21-.51.57-.49a3.4,3.4,0,0,1,.46.06,3.69,3.69,0,0,1,.45.11,4.19,4.19,0,0,0,3.52-.6A8.51,8.51,0,0,0,131,77.19c1.26-1.26,2.6-2.43,4-3.59a7.68,7.68,0,0,1,1.21-.8,2.54,2.54,0,0,1,2.69,0,9.9,9.9,0,0,1,1.14.77,15.45,15.45,0,0,1,2.13,2.07c.58.67,1.12,1.36,1.64,2.07.28.37.57.73.86,1.08a4.08,4.08,0,0,0,.47.46c.1.09.23.18.36.1s.09-.19.09-.3a1.25,1.25,0,0,0-.18-.63,13.07,13.07,0,0,1-.9-2c-.7-1.66-1.43-3.31-2.26-4.91a17.35,17.35,0,0,0-1.43-2.37,2.79,2.79,0,0,0-1-.88,1.91,1.91,0,0,0-1.71-.13c-.7.28-1.38.57-2.05.9-2.27,1.13-4.46,2.38-6.61,3.71l-2.36,1.45a5.51,5.51,0,0,1-.65.31.48.48,0,0,1-.39,0,.31.31,0,0,1-.21-.3.82.82,0,0,1,.19-.48l.9-1.22a2.29,2.29,0,0,1,.91-.75c.35-.18.71-.35,1.07-.51a4.27,4.27,0,0,0,2.27-2.36,13.27,13.27,0,0,0,.72-2.4,15.1,15.1,0,0,1,1.46-3.8,9,9,0,0,1,3.47-3.7,30.32,30.32,0,0,1,3.19-1.56,9.53,9.53,0,0,1,.95-.29l1.18-.39a.42.42,0,0,0,.26-.19.2.2,0,0,0,0-.29,1.08,1.08,0,0,0-.62-.19,12.66,12.66,0,0,0-1.38,0,11.75,11.75,0,0,0-1.88.34c-.34.1-.68.18-1,.25a5.13,5.13,0,0,0-1.31.42,2.81,2.81,0,0,1-.56.18.67.67,0,0,1-.56-.13.36.36,0,0,1-.11-.52,2.23,2.23,0,0,1,.44-.57c.85-.92,1.6-1.93,2.39-2.9a.76.76,0,0,0,.08-.11c.1-.2.38-.38.23-.63s-.4-.11-.61-.13h-.13c-.41,0-.54-.17-.54-.6a11.89,11.89,0,0,1,.08-1.19,13.43,13.43,0,0,0,.09-1.9,6.09,6.09,0,0,0-.4-2.07,3.52,3.52,0,0,0-.35-.7,1.48,1.48,0,0,0-1.55-.65,3.22,3.22,0,0,0-1.26.54,6.44,6.44,0,0,0-2.15,2.37c-.13.23-.25.46-.39.69a2.15,2.15,0,0,1-.32.41.53.53,0,0,1-.86,0,2.58,2.58,0,0,1-.33-.41.88.88,0,0,0-.4-.34c-.09,0-.18,0-.2.1a2.37,2.37,0,0,0,0,.46,5.06,5.06,0,0,0,.12.78,8.25,8.25,0,0,1-.13,4.3c-.1.38-.22.76-.35,1.13a1.32,1.32,0,0,1-.45.64.51.51,0,0,1-.71-.07,1.62,1.62,0,0,1-.25-.39,20.08,20.08,0,0,1-1.07-2.83,8.77,8.77,0,0,1-.28-1.69c0-.37-.08-.74-.11-1.11a.68.68,0,0,0-.45-.67.89.89,0,0,1-.57-.81l0-.26a1.22,1.22,0,0,1,0-.27c0-1.93,0-3.87.1-5.8a2.8,2.8,0,0,1,.2-.9,1.37,1.37,0,0,1,.85-.78,2.88,2.88,0,0,1,.5-.15,2.93,2.93,0,0,0,1.64-1c.32-.4.63-.8.92-1.21.47-.64.92-1.29,1.39-1.93a15.22,15.22,0,0,1,2.79-2.88,3.5,3.5,0,0,1,4-.36,5.73,5.73,0,0,1,1.19.82,62,62,0,0,1,5.31,4.94,1.17,1.17,0,0,0,.65.42.3.3,0,0,0,.38-.38,1.26,1.26,0,0,0-.31-.58L137.62,30c-.24-.29-.49-.57-.75-.83a2.91,2.91,0,0,0-2.09-.83,4.22,4.22,0,0,0-2.1.46,2,2,0,0,1-.3.14,12.67,12.67,0,0,0-5.66,4.49c-.25.33-.46.69-.7,1s-.36.5-.56.74a2.17,2.17,0,0,1-.39.35c-.23.16-.45.07-.48-.2a3.82,3.82,0,0,1,0-.59c0-.92,0-1.85,0-2.77,0-1.91,0-3.83,0-5.74a3.18,3.18,0,0,1,.72-2l0-.05c1.44-1.63,2.78-3.35,4.37-4.85l.16-.11a1.66,1.66,0,0,0,.93.26c.93.14,1.85.32,2.77.52s1.93.36,2.89.58,1.87.45,2.8.7c1.23.33,2.45.67,3.67,1,1.43.43,2.84.89,4.25,1.39,1.6.58,3.2,1.2,4.79,1.83.85.34,1.68.75,2.53,1.11q2.33,1,4.58,2.17c1.4.73,2.79,1.47,4.16,2.27,1,.56,1.93,1.13,2.89,1.71,1.2.72,2.38,1.48,3.54,2.27,1.62,1.12,3.25,2.24,4.79,3.46l2.56,2c.72.57,1.44,1.15,2.13,1.75s1.06,1,1.61,1.45c1.09.93,2.08,2,3.09,3a5.62,5.62,0,0,1,.71.58c.84,1.06,1.85,1.94,2.78,2.91a23.5,23.5,0,0,0,1.55,1.78c.34.44.75.85,1.12,1.29s.67.8,1,1.21.54.63.8,1c.71.92,1.42,1.83,2.12,2.76,1.51,2,2.91,4.06,4.27,6.15.57.89,1.12,1.79,1.65,2.69.66,1.11,1.3,2.24,1.95,3.36l.06.12c.59,1.13,1.2,2.25,1.76,3.39s1,2.07,1.43,3.11c.27.58.54,1.15.8,1.74.37.86.75,1.73,1.08,2.61.56,1.45,1.1,2.91,1.61,4.38.74,2.18,1.42,4.37,2,6.6.23.86.47,1.73.67,2.6.32,1.36.64,2.73.88,4.11.09.51.21,1,.3,1.54s.24,1.33.35,2,.29,1.59.36,2.39c.05.5.14,1,.18,1.5s.14,1.17.21,1.75a2.58,2.58,0,0,1,0,.39,3.62,3.62,0,0,0,.12,1.18,1.67,1.67,0,0,1,0,.39,5.87,5.87,0,0,0,.09,1.18,5.78,5.78,0,0,1,0,1.18,2.71,2.71,0,0,0,.09.85,1.91,1.91,0,0,1,0,.59v2.83a2.12,2.12,0,0,0,.09.79,1.35,1.35,0,0,1,0,.45,7.24,7.24,0,0,1-.12,2,1.75,1.75,0,0,0,0,.46v2.31a5.82,5.82,0,0,1-.1,1.24,5.8,5.8,0,0,0,0,1.18,2.21,2.21,0,0,1-.1.85.63.63,0,0,0,0,.19,11.71,11.71,0,0,1-.16,2.29,13,13,0,0,1-.2,1.76c-.1.38,0,.79-.16,1.17,0,.81-.23,1.6-.29,2.4a17.22,17.22,0,0,1-.28,1.75c-.15.81-.34,1.62-.49,2.44-.2,1.07-.4,2.15-.66,3.21-.23.91-.43,1.83-.67,2.74s-.56,2-.84,3c0,.1,0,.21-.08.31-.15.41-.56.37-.87.46a125,125,0,0,0-12.08,4.21,105.49,105.49,0,0,0-27.26,16.26,106.72,106.72,0,0,0-9.38,8.79A111.76,111.76,0,0,0,149.84,190a136.53,136.53,0,0,0-10.77,18.59c-.24.49-.75,1.12-.55,1.47s1,.14,1.53.15c3.74,0,7.47-.17,11.21-.16,1.18,0,2.37-.09,3.55-.1a1.08,1.08,0,0,1,.76.15,3.57,3.57,0,0,1-1,.5c-.74.34-1.49.63-2.24.94s-1.69.75-2.55,1.06c-1.9.68-3.8,1.36-5.72,2s-3.72,1.14-5.61,1.6c-1,.25-2.08.51-3.13.74s-1.93.38-2.89.58c-.64.13-1.28.26-1.93.35s-1.46.24-2.2.34c-.49.06-1,.11-1.49.19a10.63,10.63,0,0,1-1.49.18,2,2,0,0,0-.72.09,2.22,2.22,0,0,1-.45,0,2.8,2.8,0,0,0-.91.1,1.41,1.41,0,0,1-.46,0,5.94,5.94,0,0,0-1.18.1,4.58,4.58,0,0,1-1,0,3,3,0,0,0-.84.09,1.55,1.55,0,0,1-.53,0h-1.78a2.84,2.84,0,0,0-1,.1,1.8,1.8,0,0,1-.52,0h-2.71a4.4,4.4,0,0,1-1.3-.11,1.41,1.41,0,0,0-.46,0h-1.85a2.57,2.57,0,0,1-.91-.09,2.28,2.28,0,0,0-.59,0,4.73,4.73,0,0,1-1.5-.11,1.26,1.26,0,0,0-.39,0,3.63,3.63,0,0,1-1.31-.12,13.77,13.77,0,0,1-1.69-.15,6.22,6.22,0,0,1-1.43-.17c-.49-.11-1-.12-1.49-.2L98,217.84c-.6-.1-1.21-.18-1.81-.3-1.17-.23-2.35-.47-3.52-.73s-2.34-.55-3.51-.85c-.84-.22-1.68-.48-2.52-.71-1.63-.45-3.24-1-4.83-1.53-1.17-.42-2.34-.87-3.5-1.32-.8-.3-1.59-.62-2.38-.94-.37-.15-.74-.3-1.09-.46l-2-.95-2.5-1.18a.65.65,0,0,0-.19,0c-.21-.24,0-.46,0-.68a147.7,147.7,0,0,1,6.05-14.55,112.34,112.34,0,0,1,7.91-13.92,100.49,100.49,0,0,1,8.56-11,91.35,91.35,0,0,1,18.19-15.56c1.69-1.11,3.42-2.17,5.2-3.13a1.47,1.47,0,0,1,.66-.27c1.35.41,2.72.69,4.09,1a1.74,1.74,0,0,0,1.15,0,21.49,21.49,0,0,1-2.81-1.26c-.28-.15-.62-.23-.78-.56.23-.53.72-.61,1.22-.68,1,.3,2,.78,3,1.06a22,22,0,0,0,3.51.52,15.33,15.33,0,0,0,4.59-.1,16.54,16.54,0,0,0,10.18-5.95,25.71,25.71,0,0,0,2.76-4,1.33,1.33,0,0,1,.62-.74,118.52,118.52,0,0,1,12.52-2.51c.56.13.73.67,1,1a10.68,10.68,0,0,1,1.92,3c-.19.37-.58.36-.91.44-3.25.78-6.47,1.7-9.63,2.78A97.64,97.64,0,0,0,108.3,170a109.88,109.88,0,0,0-13.55,17.91c-2.21,3.62-4.27,7.33-6.14,11.14q-2.48,5.07-4.58,10.31c-.28.69-.25.73.51.73,4.18,0,8.36,0,12.54,0a1,1,0,0,0,1.09-.71c1.27-3,2.71-6,4.22-8.95a121.76,121.76,0,0,1,14.74-22.38,98.33,98.33,0,0,1,6.9-7.53,104.05,104.05,0,0,1,18.34-14.37,105.44,105.44,0,0,1,10.07-5.48,113.07,113.07,0,0,1,11.35-4.65,130.84,130.84,0,0,1,18.14-4.87c4.08-.8,8.19-1.4,12.34-1.86,0-.2-.19-.22-.31-.28a6.72,6.72,0,0,1-1.14-.65c-2-1.58-4.32-1.27-6.58-1.15-1.24.07-2.5.07-3.74.19-1.55.14-3.11.23-4.66.37-.28,0-.58.11-.79-.17a1.2,1.2,0,0,1,.16-.76,26.32,26.32,0,0,0,1.72-7.75,34.39,34.39,0,0,0-.71-10,12.46,12.46,0,0,0-2.28-5.28,3.19,3.19,0,0,0-2-1.28,2.64,2.64,0,0,0-2.52,1.12,12.78,12.78,0,0,0-2.26,4.66,29,29,0,0,0-1.08,9.07c.06,1.29.32,2.57.44,3.86,0,.28.11.57-.12.81a1.38,1.38,0,0,1-1.14,0c-.52-.47-.42-1.15-.45-1.73a39,39,0,0,1,1-12.74,16.72,16.72,0,0,1,1.94-4.46,5.28,5.28,0,0,1,2.18-2.06c.18-.09.48-.16.43-.42s-.34-.22-.55-.25a18.85,18.85,0,0,0-4.92,0c-.64.06-1.27.12-1.9.2a2.2,2.2,0,0,0-1.84,1.31c-.56,1.18-.93,2.42-1.39,3.63-.12.31-.22.62-.36.93a2.32,2.32,0,0,1-1.86,1.4c-1.06.17-1.12.29-.91,1.35.67,3.39,1.46,6.75,2.13,10.13.05.24.07.48.1.72a1.13,1.13,0,0,1-1.18,1.39,10,10,0,0,1-1.45,0,1.33,1.33,0,0,0-1.58.83,8.12,8.12,0,0,1-2,.22c-2.58.14-5.16.38-7.73.65a1.71,1.71,0,0,1-.78,0c-.34-.19-.2-.49-.19-.77a19,19,0,0,0-1.4-8.9,20.63,20.63,0,0,0-9.36-9.94,15,15,0,0,0-7.5-2,16.17,16.17,0,0,0-10.25,3.8,20.33,20.33,0,0,0-5.42,6.39,17.46,17.46,0,0,0-1.79,5.91,22.84,22.84,0,0,0,.89,10.22,17.55,17.55,0,0,0,1.08,2.48,2.7,2.7,0,0,1,.4,1.1c-.21.54-.66.62-1.15.61a4.34,4.34,0,0,1-1.19-1.72,20,20,0,0,1-1.93-7.34,24,24,0,0,1,.29-6.17,20.23,20.23,0,0,1,10.15-14.37,15.15,15.15,0,0,1,4-1.54,1.19,1.19,0,0,0,.48-.18,1,1,0,0,0-.72-.09,22.9,22.9,0,0,0-10.15,3.62,19.76,19.76,0,0,0-7.52,9.52,19.23,19.23,0,0,0-1.25,7A21.1,21.1,0,0,0,107,142.11a3.07,3.07,0,0,1,.76,1.64.91.91,0,0,1-1.08.5,1.56,1.56,0,0,1-.22-.4,1.23,1.23,0,0,0-1.25-.85,33.9,33.9,0,0,1-5.13-.51,2.25,2.25,0,0,1-.81-.25c-.19-.28,0-.39.2-.54a9.69,9.69,0,0,1,2.28.1c.93.08,1.84-.11,2.76-.12.35,0,.5-.29.34-.62-.64-1.32-1.06-2.75-1.8-4a2,2,0,0,0-1.23-.83,10.81,10.81,0,0,1-4.06-2.11,7.78,7.78,0,0,1-2.09-9,9.12,9.12,0,0,1,5.25-4.73,7.09,7.09,0,0,1,2-.32c.59-.06.65-.19.29-.67a1.43,1.43,0,0,1-.28-1.18,12.62,12.62,0,0,0,.08-2c0-.52-.25-.74-.73-.84a5.37,5.37,0,0,0-2,.14,14.21,14.21,0,0,0-10.24,7A11.21,11.21,0,0,0,88.59,128a14.41,14.41,0,0,0,.29,3.47c.05.23.13.48-.08.69a.82.82,0,0,1-.94-.11,6.24,6.24,0,0,1-.52-2.82A15,15,0,0,1,100,114a13.28,13.28,0,0,1,3.27-.22c.28,0,.4-.08.45-.35.15-.85,0-1.1-.89-1.06-5.59.24-10.51,2.06-14.25,6.39a15.07,15.07,0,0,0-3.77,10,11.43,11.43,0,0,0,.09,2.11.64.64,0,0,1-.15.67.94.94,0,0,1-.64,0c-1.19-.23-2.39-.43-3.59-.66-.3-.06-.61-.1-.75-.43a5.77,5.77,0,0,1,.07-1.9,50.14,50.14,0,0,0-.56-8.74,15.39,15.39,0,0,1,.4-6.08,38.55,38.55,0,0,0,1.11-8.28c.06-1.51,0-3,.2-4.54a23.92,23.92,0,0,0-.18-4.14,32.44,32.44,0,0,1-.11-5.66A11.41,11.41,0,0,1,82,87.5c.19-.38.39-.75.55-1.13.06-.14.17-.3,0-.42s-.26,0-.37.07a9.53,9.53,0,0,1-3.1.85,3.19,3.19,0,0,1-1.56-.15,1,1,0,0,1-.75-1.24c.5-2.46,1.34-4.75,3.54-6.26a6.55,6.55,0,0,1,2.74-1.07,1.15,1.15,0,0,1,.26,0c.4,0,.87,0,1,.46s-.3.61-.62.79c-.92.53-1,.54-.48,1.47,1,2-.13,2.93-2,3.29-.28.06-.64-.08-.77.33s0,.66.44.68a4.75,4.75,0,0,0,3.89-2.25.6.6,0,0,0,.1-.31c-.2-1.4.43-2.71.52-4.08.06-.86.48-1.15,1.34-1.07,2.35.22,4.69.28,7,.27A23.88,23.88,0,0,0,102.87,76C103.07,75.91,103.27,75.78,103.5,75.88Z"></path><path class="cls-7" d="M79.79,130.53a1.92,1.92,0,0,0,.31.11l4.63.82c.27.11.27.38.32.61a14.7,14.7,0,0,0,7.89,10.24,15.6,15.6,0,0,0,2.74,1.12c.26.08.57.11.72.41,0,.48-.46.62-.77.83-2.1,1.41-4.12,2.93-6.13,4.46q-4.16,3.15-8,6.62c-2,1.77-4,3.54-5.81,5.45a119,119,0,0,0-9.06,10.37,98.3,98.3,0,0,0-10.88,17.8q-1.7,3.58-3,7.31c-.08.24-.12.52-.38.67l-.21.39c-.2,0-.29-.15-.41-.25a111.46,111.46,0,0,1-10.46-10,100.73,100.73,0,0,1-20.22-33A109,109,0,0,1,17,141a1.62,1.62,0,0,1-.07-.58,1.3,1.3,0,0,1,.71-.55,86.52,86.52,0,0,1,16-6.06c1.51-.38,3-.68,4.57-1a2.09,2.09,0,0,0,.93-.07,1,1,0,0,1,1.09.2c1,.75,1.83,1.63,2.84,2.34,1.09,1.1,2.4,2,3.48,3.07a3.66,3.66,0,0,0,.42.68c.5.54.76,1.27,1.39,1.69A7,7,0,0,0,49,142.2,4,4,0,0,0,51.8,144a10,10,0,0,0,3.14,0,33.67,33.67,0,0,1,8.8.14,4.56,4.56,0,0,0,5.14-3.08,8,8,0,0,1,3-3.73,14,14,0,0,0,3-2.79,2.52,2.52,0,0,0,.61-1.82c0-.31-.09-.66.19-.93.06-.07.15.15.21,0a9.16,9.16,0,0,1,.64-1.15c.41-.72.66-.81,1.52-.57.27.31.26.73.41,1.09s.17.53.48.55.42-.32.53-.58.08-.52.28-.72h.06S79.81,130.47,79.79,130.53Z"></path><path class="cls-8" d="M39.21,132.9a.69.69,0,0,1-.88,0c-.49-.28-.49-.8-.59-1.26a24.56,24.56,0,0,1-.25-9.55,19.89,19.89,0,0,0,.46-3.92,21.84,21.84,0,0,0-.74-5.28,28.12,28.12,0,0,1-.87-5.91c-.19-3-.07-6.11-.1-9.16,0-1.65.23-3.28.26-4.93a9.31,9.31,0,0,0-1.06-4.57c-.31-.61-.61-1.22-.91-1.83a1.06,1.06,0,0,1-.16-.81c.22-.3.47-.16.72-.07a10,10,0,0,0,2.83.84,5.89,5.89,0,0,0,1.83-.12.61.61,0,0,0,.56-.76c-.55-2.42-1.31-4.73-3.51-6.2a5.53,5.53,0,0,0-2.38-.93,2.48,2.48,0,0,0-.72,0c-.13,0-.28,0-.32.2s.1.24.21.31.52.24.76.39c.53.35.6.61.32,1.16a2.62,2.62,0,0,0-.32.65c-.14.54-.59,1.11-.23,1.63a2.61,2.61,0,0,0,2,1.33c1,0,1,.52,1,1.2,0,.45-.26.63-.69.61a6.29,6.29,0,0,1-1-.18,4.12,4.12,0,0,0-.69-.27,4.13,4.13,0,0,1-1.62-1.31.53.53,0,0,1-.16-.28c-.33-1.8-1.14-3.49-1.31-5.33-.08-.86-.49-1.07-1.37-1-2,.14-4.07.37-6.11.34-.87,0-1.74-.09-2.61-.16s-2-.19-3-.4a19,19,0,0,1-5.88-2.22,12.29,12.29,0,0,1-2.86-2.31c-.3-.33-.59-.65-.87-1A8.18,8.18,0,0,0,7,70.1a5.31,5.31,0,0,1-.81-.68L4.1,67.33A42.45,42.45,0,0,1,1,63.74a4.91,4.91,0,0,1-.76-1.66V60.7a6.27,6.27,0,0,1,2.83-3.81,23.56,23.56,0,0,1,7.8-3.42c.83-.2,1.67-.38,2.51-.55a12.13,12.13,0,0,1,6.29.49,22.32,22.32,0,0,1,3.94,1.81c2.26,1.28,4.54,2.5,6.83,3.71a8.73,8.73,0,0,0,2.09.76,5.24,5.24,0,0,0,4.22-1.91,11.84,11.84,0,0,1,2.74-2.14c1.43-.84,2-.65,2.39,1,.29,1,.48,2.1.84,3.12a9.72,9.72,0,0,0,2.14,3.74,5.37,5.37,0,0,1,1.25,2.23,19.58,19.58,0,0,1,.78,4.67,28.53,28.53,0,0,0,1.21,6.34c.77,2.62,1.88,5.12,2.85,7.66a29.74,29.74,0,0,1,1.76,7.9,28.09,28.09,0,0,0,.52,4.18,9.37,9.37,0,0,1-.11,4.31,7.74,7.74,0,0,1-.34,1.34,8.33,8.33,0,0,0-.48,3.5,35.42,35.42,0,0,1-.83,7.25,4.68,4.68,0,0,1-1.28,2.42c-1.13,1.17-2,2.54-3.06,3.79a2.62,2.62,0,0,1-3.08,1c-1.91-.6-2.38-.21-2.45,1.76a8.27,8.27,0,0,1-.74,3.45,13.28,13.28,0,0,0-1.24,5.62A3.29,3.29,0,0,1,39.21,132.9Z"></path><path class="cls-9" d="M21.52,77.76h1.77c1.62,0,3.24-.12,4.86-.24.77,0,1.53-.11,2.3-.13,1,0,1.25.18,1.37,1.15a19.32,19.32,0,0,0,.69,3.28,2.62,2.62,0,0,0,.71,1.38c.09.08.06.18,0,.27s-.23.25-.08.47a4.35,4.35,0,0,0,1.73,1.48c0,.31-.34.06-.36.28a1.83,1.83,0,0,0,.33,1c.41.75.75,1.53,1.14,2.3a7.6,7.6,0,0,1,.74,3.18,37.16,37.16,0,0,1-.16,4c-.11,1.43-.12,2.85-.12,4.28s0,2.81,0,4.22c0,1.63.12,3.25.27,4.87a16.93,16.93,0,0,0,.58,2.9,26.2,26.2,0,0,1,.84,4.73,14.77,14.77,0,0,1-.3,4.25,25.72,25.72,0,0,0-.46,6.43,23.78,23.78,0,0,0,.43,3.13c.07.37.14.73.22,1.1a3,3,0,0,0,.32.92,4.32,4.32,0,0,1-1.33.32,69,69,0,0,0-9.88,2.78,96.35,96.35,0,0,0-9.69,4.15l-.53.25a3.44,3.44,0,0,0-.19-1.23c-.2-.76-.29-1.54-.46-2.31a27.1,27.1,0,0,1-.51-3,19.43,19.43,0,0,1-.3-2.4,8,8,0,0,1-.22-1.69c-.08-.6-.15-1.21-.2-1.82s0-1.41-.13-2.1a14,14,0,0,1-.11-1.83,1.2,1.2,0,0,0,0-.33,4.22,4.22,0,0,1-.12-1.5v-7.59a2.47,2.47,0,0,1,.09-.85,2.2,2.2,0,0,0,0-.52,7.6,7.6,0,0,1,.12-1.9,1.27,1.27,0,0,0,0-.39,3.68,3.68,0,0,1,.11-1.24.91.91,0,0,0,0-.33,3,3,0,0,1,.12-1.11.59.59,0,0,0,0-.19,2.81,2.81,0,0,1,.13-1,12.83,12.83,0,0,1,.15-1.63,11.33,11.33,0,0,1,.15-1.17c.08-.69.24-1.38.35-2.06s.18-1.13.28-1.68c.2-1,.43-2.06.62-3.09.3-1.59.72-3.15,1.11-4.72.17-.7.39-1.39.59-2.09.5-1.72,1-3.44,1.63-5.14.36-1,.7-2,1.12-3,.25-.58.45-1.18.69-1.77L23,78.25a.47.47,0,0,0,.06-.34c-.35,0-.72,0-1.09,0C21.84,77.88,21.65,77.92,21.52,77.76Z"></path><path class="cls-7" d="M116.66,149.77a94.06,94.06,0,0,0-12.25,8.1q-2.89,2.25-5.58,4.74A96,96,0,0,0,82.1,183.07a120.43,120.43,0,0,0-6.8,12.73c-1.87,4.08-3.53,8.24-5,12.46-.06.18-.1.38-.15.57s-.11.24-.17.35-.15.2-.3.1l-.44-.29c-2.83-1.92-5.65-3.83-8.49-5.74a1.82,1.82,0,0,0-.61-.37c-.43-.17-.27-.49-.19-.78C60.49,200,61.22,198,62,196a109.48,109.48,0,0,1,6-13.42,93.4,93.4,0,0,1,9-14,86.79,86.79,0,0,1,9.08-10,84.33,84.33,0,0,1,12.85-10c2.34-1.48,4.73-2.87,7.21-4.12a3.64,3.64,0,0,1,.72-.19l.93-.49c.19,0,.28.11.36.23a10.25,10.25,0,0,0,2.84,2.69c.56.42,1.15.81,1.69,1.25a3.09,3.09,0,0,0,1.34.64,18.72,18.72,0,0,1,2.41.87C116.51,149.51,116.65,149.59,116.66,149.77Z"></path><path class="cls-10" d="M155.57,210.13l-.46,0-8.11.15-8.18.14h-.65c-.09-.21,0-.35.11-.5,1.23-2.67,2.56-5.3,4-7.89A122.84,122.84,0,0,1,155,183,104.08,104.08,0,0,1,195,152.73a119.73,119.73,0,0,1,14.52-5.14c.1,0,.22,0,.29-.13l.32,0c.15,0,.23,0,.19.16-.17.65-.35,1.29-.53,1.94a.49.49,0,0,1-.25.28,3.11,3.11,0,0,0-.65.41,2.49,2.49,0,0,1-1.07.75,145.81,145.81,0,0,0-15.65,10.38q-3.8,2.91-7.36,6.09c-2.06,1.83-4,3.75-5.94,5.71a104.3,104.3,0,0,0-19.41,28c-1.28,2.7-2.46,5.45-3.5,8.26a1.42,1.42,0,0,1-.42.72Z"></path><path class="cls-9" d="M155.57,210.13c.53-1.56,1.16-3.08,1.79-4.6a104.76,104.76,0,0,1,16.19-26.67A112.42,112.42,0,0,1,187.43,165a140.25,140.25,0,0,1,21.07-14.55c.14-.08.28-.13.42-.2a2,2,0,0,1-.2.76c-.14.42-.31.82-.45,1.24-.53,1.55-1.12,3.09-1.74,4.61-.46,1.14-.95,2.26-1.47,3.38-.6,1.29-1.17,2.6-1.82,3.87-.57,1.09-1.16,2.16-1.75,3.24s-1.19,2.2-1.84,3.26c-.79,1.3-1.63,2.55-2.45,3.82-.43.66-.86,1.33-1.32,2-.7,1-1.43,2-2.16,3-.54.72-1.07,1.44-1.63,2.14s-1,1.2-1.52,1.81l-.95,1.17s-.05.08-.08.11c-.49.43-.84,1-1.32,1.46s-.89,1.08-1.41,1.56a15.16,15.16,0,0,0-1.44,1.45,9.92,9.92,0,0,1-1.25,1.34c-1,.82-1.84,1.76-2.76,2.65a19.71,19.71,0,0,0-1.64,1.41,17,17,0,0,0-1.43,1.26c-.29.26-.6.51-.9.76-.87.7-1.73,1.41-2.62,2.08s-1.84,1.33-2.75,2c-1.4,1.06-2.87,2-4.34,3-.87.58-1.78,1.11-2.68,1.65s-2,1.19-3,1.76c-.63.36-1.27.7-1.91,1l-2.71,1.36A15.18,15.18,0,0,1,155.57,210.13Z"></path><path class="cls-9" d="M106.11,144.56a9.29,9.29,0,0,1-1.37.78,88,88,0,0,0-12.07,7.78,85,85,0,0,0-11,10.1,91.33,91.33,0,0,0-12.86,18.06,109.64,109.64,0,0,0-7,15.69q-.95,2.64-1.77,5.31c-.07.23-.12.42.09.6a.57.57,0,0,1-.37-.12c-.3-.21-.62-.41-.92-.63-1.42-1-2.83-2-4.2-3-.76-.59-1.54-1.16-2.31-1.74a30.83,30.83,0,0,1,1.09-3A93.12,93.12,0,0,1,64,174.8a106.73,106.73,0,0,1,8.31-10.31,122.8,122.8,0,0,1,11-10.56A149.47,149.47,0,0,1,96,144.21c.14-.1.27-.22.41-.33s.59-.09.88,0a25.51,25.51,0,0,0,8.08.53A.78.78,0,0,1,106.11,144.56Z"></path><path class="cls-11" d="M126.82,18.87a19,19,0,0,1-1.5,2.06.84.84,0,0,1-.23.23.49.49,0,0,1-.78-.12,1.53,1.53,0,0,1-.24-.61,6.93,6.93,0,0,1-.14-1.82,2.24,2.24,0,0,1,.89.1.87.87,0,0,0,.32,0,3.88,3.88,0,0,1,.9.1A2.88,2.88,0,0,0,126.82,18.87Z"></path><path class="cls-9" d="M39.21,132.9a15.63,15.63,0,0,0,.26-2.36,18.49,18.49,0,0,1,.21-2.23,9.34,9.34,0,0,1,.64-2.21c.2-.49.4-1,.61-1.46a4.75,4.75,0,0,0,.4-1.65c0-.57.07-1.14.1-1.72a2.64,2.64,0,0,1,.12-.78,1.15,1.15,0,0,1,1.15-.9,4,4,0,0,1,1.23.19l.88.25a1.6,1.6,0,0,0,1.32-.27,3.52,3.52,0,0,0,.72-.67c.54-.67,1.08-1.33,1.61-2,.4-.5.78-1,1.17-1.51a2.73,2.73,0,0,1,.39-.44,3.81,3.81,0,0,0,1.18-1.94,15,15,0,0,0,.34-1.75,32.74,32.74,0,0,0,.6-6.09,10.4,10.4,0,0,0,0-1.12,2.41,2.41,0,0,1,.14-1.1,20.37,20.37,0,0,0,.86-3.24,8.17,8.17,0,0,0,0-3.41,18.4,18.4,0,0,1-.4-2.86c-.11-1.36-.26-2.72-.48-4.06a28.41,28.41,0,0,0-1.7-5.94c-.67-1.7-1.38-3.38-2-5.1a39.66,39.66,0,0,1-1.46-5.33,22.58,22.58,0,0,1-.34-3,18.86,18.86,0,0,0-.78-4.53,4.84,4.84,0,0,0-1.15-2.06,10.17,10.17,0,0,1-2.41-4.47c-.25-.85-.44-1.71-.65-2.56a5.49,5.49,0,0,0-.21-.69c-.24-.64-.48-.75-1.11-.52l-.54.24a13,13,0,0,0-2,1.33,5.36,5.36,0,0,0-.78.8,6.12,6.12,0,0,1-2.33,1.69,3.82,3.82,0,0,1-1.86.32.5.5,0,0,1-.31-.1l.79,0a.55.55,0,0,0,.46-.2c.31-.42.6-.85.9-1.28,0,0,0-.08,0-.13,0-.27.2-.38.38-.49a20.68,20.68,0,0,0,3.49-3,6.15,6.15,0,0,0,1-1.38,7.06,7.06,0,0,1,2.91-2.87l.46-.25c.1-.06.19-.13.19-.25s-.16-.19-.28-.23a4.62,4.62,0,0,0-.65-.08c-.2,0-.46,0-.52-.27a1.15,1.15,0,0,1,.26,0,.78.78,0,0,0,.64-.28l1.86-1.87c.48-.48,1-1,1.44-1.45.72-.77,1.56-1.42,2.32-2.15s1.31-1.16,2-1.73c1-.84,2-1.67,3-2.49.68-.55,1.39-1.06,2.1-1.58,1.55-1.13,3.11-2.28,4.73-3.31,1.35-.86,2.69-1.74,4.07-2.54s2.62-1.51,4-2.22c1-.5,1.91-1,2.87-1.47s2.08-.94,3.11-1.44c1.28-.63,2.62-1.1,3.93-1.68.76-.33,1.55-.6,2.33-.87,1.29-.46,2.57-.92,3.86-1.33s2.71-.85,4.09-1.21S90.73,21,92,20.68c.93-.23,1.88-.41,2.82-.61l1.73-.35,1.94-.31a9.91,9.91,0,0,0,1.09-.18,11.64,11.64,0,0,1,1.3-.19c.38-.07.77-.12,1.16-.17a.57.57,0,0,1-.11.16,31.14,31.14,0,0,0-3.07,3.61,4,4,0,0,0-.58.94.14.14,0,0,0,0,.18.29.29,0,0,0,.18,0,1.3,1.3,0,0,0,.62-.36l2.47-2.07c.84-.7,1.68-1.41,2.58-2a6.06,6.06,0,0,1,1.73-.94,10.13,10.13,0,0,1,2.75-.15,5.53,5.53,0,0,1,2,1.39,33.7,33.7,0,0,1,4.6,6.09,23.53,23.53,0,0,0,1.39,2.08A9,9,0,0,0,117.71,29a4.85,4.85,0,0,0,3.68,1.33,5.63,5.63,0,0,1,.92,0c.6,0,.78.21.84.8a14,14,0,0,1,.06,1.45c0,1.27,0,2.55,0,3.82a2,2,0,0,1-.14.9c-.09.21-.28.23-.4,0a1,1,0,0,1-.1-.17c-.22-.44-.41-.36-.64,0a2,2,0,0,0-.23.47,4,4,0,0,0-.23.69c-.24,1.27-.72,2.48-1,3.75a1.93,1.93,0,0,1-.27.67.52.52,0,0,1-1,0,5.46,5.46,0,0,1-.35-.78,10.64,10.64,0,0,1-.64-3.35c0-.77,0-1.54,0-2.31a1.67,1.67,0,0,0-.08-.7c-.14-.09-.22,0-.3.06s-.25.19-.38.27c-.35.23-.51.22-.81-.08a5.17,5.17,0,0,1-.42-.51c-.26-.33-.49-.67-.75-1s-.64-.84-1-1.25a5.07,5.07,0,0,0-.87-.8,2.38,2.38,0,0,0-.76-.39,1.76,1.76,0,0,0-2.19.87,4.34,4.34,0,0,0-.45,2c0,.26,0,.53,0,.79,0,.88,0,1.76.07,2.64a5.82,5.82,0,0,1,0,.59c0,.34-.12.43-.45.43s-.35,0-.53,0a.91.91,0,0,0-.31.09.15.15,0,0,0-.09.21,1,1,0,0,0,.17.28c.2.24.39.48.61.7a13.78,13.78,0,0,1,1.43,1.71,4.4,4.4,0,0,0,.6.62c.17.17.37.36.26.63s-.41.3-.68.27c-.48,0-1-.11-1.43-.18-.9-.12-1.79-.23-2.68-.36a5.83,5.83,0,0,0-1.18-.05,5.69,5.69,0,0,1-.72,0c-.22,0-.27-.11-.28-.37a2.17,2.17,0,0,1,0-.26c-.19-.38,0-.74.12-1.08a18,18,0,0,0,.68-7.16,12.22,12.22,0,0,0-1.08-4.46,3.78,3.78,0,0,0-1.15-1.5c-.75-.54-1.34-.32-1.59.57a1.89,1.89,0,0,0-.05.85c.05.28.07.57.14.85.92,3.63-.5,6.55-2.85,9.14-2.93,3.24-6.71,5.13-10.75,6.58a74.09,74.09,0,0,1-9.15,2.5,33.36,33.36,0,0,1-4.67.85c-.17,0-.38,0-.44.22s.14.34.3.44.47.24.7.37a5.8,5.8,0,0,1,2.33,2.25,15.15,15.15,0,0,0,5.15,5,1.81,1.81,0,0,0,1.65.11,35.58,35.58,0,0,0,3.83-1.6,63.82,63.82,0,0,0,8.93-5c2.7-1.81,5.24-3.8,6.76-6.8.16-.31.34-.63.77-.63a7.41,7.41,0,0,1,2.83.53,12.08,12.08,0,0,1,6.31,4.73,10.11,10.11,0,0,1,.76,1.46,31.72,31.72,0,0,1,1.19,3.69c.17.52.35,1,.53,1.55.08.21.17.41.26.61A2.46,2.46,0,0,0,118.17,58l1.4.39.44.12a.86.86,0,0,1,.6.48,9.72,9.72,0,0,1,.79,2,2.06,2.06,0,0,1,0,.26.2.2,0,0,1-.24.23,1.13,1.13,0,0,1-.54-.22c-.24-.16-.46-.35-.68-.53l-1.69-1.35a1.19,1.19,0,0,1-.69-.36,27,27,0,0,0-11.68-5.41,22.84,22.84,0,0,0-4.1-.63,12.07,12.07,0,0,0-4.38.83,52.2,52.2,0,0,0-6.29,3.18c-1.62.83-3.22,1.7-4.85,2.53a4.42,4.42,0,0,1-4.89-.51A9.47,9.47,0,0,1,80,57.66a10.67,10.67,0,0,0-2.66-1.92c-1-.54-1.28-.39-1.51.68a23.9,23.9,0,0,1-1.24,4.37,6.46,6.46,0,0,1-1.09,1.87A9.87,9.87,0,0,0,71,69.08a41.09,41.09,0,0,1-3.58,13.79A33.74,33.74,0,0,0,65,93.09c-.13,1.44-.35,2.88-.56,4.31a7.48,7.48,0,0,0,.29,3.46,20.76,20.76,0,0,1,.81,5.91,32.39,32.39,0,0,0,.8,6.2,3.68,3.68,0,0,0,1,1.87,40.33,40.33,0,0,1,3,3.81,2.51,2.51,0,0,0,3.1,1,4.07,4.07,0,0,1,.83-.22,1.45,1.45,0,0,1,1.8,1.37,16,16,0,0,1,.17,2,7.49,7.49,0,0,0,1,3.19,10.73,10.73,0,0,1,.86,3.77,1.67,1.67,0,0,1,0,.31.22.22,0,0,1-.1.17c-.31,0-.63-.17-.91-.05s-.34.49-.5.75-.46.74-.7,1.11c-.06.08-.11,0-.16,0a8.77,8.77,0,0,1-.22-1.62,5.47,5.47,0,0,0-2-3.37,2.38,2.38,0,0,0-2.29-.5c-.14,0-.3.07-.44.13a2.8,2.8,0,0,1-3.54-1.07c-.49-.63-.91-1.3-1.38-1.94a3.18,3.18,0,0,0-3.07-1.26,11.43,11.43,0,0,0-3,.87,2.9,2.9,0,0,1-2.36-.1,8,8,0,0,0-2.5-.78,3.27,3.27,0,0,0-3.16,1.22c-.63.76-1.14,1.62-1.8,2.36a2.3,2.3,0,0,1-2.64.82,3.74,3.74,0,0,0-5.09,2.79,5.61,5.61,0,0,0,.37,4.36c.13.25.21.52.32.79l.12.25.07.16a1.89,1.89,0,0,1,.11.25.26.26,0,0,1,0,.17,1.75,1.75,0,0,1-.6-.4c-.79-.67-1.58-1.32-2.36-2A.79.79,0,0,0,39.21,132.9Z"></path><path class="cls-12" d="M41.68,49.25a1.27,1.27,0,0,0,.64.13l.91.13a.26.26,0,0,1,.23.2.32.32,0,0,1-.12.35,2,2,0,0,1-.28.16l-1.2.69a5.27,5.27,0,0,0-1.72,1.7c-.23.35-.44.71-.67,1.06a4.89,4.89,0,0,1-.55.74,20.87,20.87,0,0,1-4,3.48c-.07,0-.13.11-.2.16a1.67,1.67,0,0,1-1.75,0c-.58-.21-1.16-.43-1.72-.67a88,88,0,0,1-7.89-3.95A44.93,44.93,0,0,1,18.05,50a19.56,19.56,0,0,1-2.75-2.55,14.14,14.14,0,0,1-2.61-4.32,18.68,18.68,0,0,1-1.34-6.68,20.64,20.64,0,0,1,.26-4,10.41,10.41,0,0,1,1-2.92,4.85,4.85,0,0,1,.82-1.19,2.31,2.31,0,0,1,.69-.5.9.9,0,0,1,1.33.63,3.06,3.06,0,0,1,.07,1.24c-.08.57-.17,1.13-.25,1.7A8.15,8.15,0,0,0,15.91,36a13.64,13.64,0,0,0,3.51,4.73c.49.44,1,.85,1.52,1.26a19.09,19.09,0,0,0,4.76,2.78c.33.14.66.25,1,.4a54.89,54.89,0,0,0,7.11,2.37,15.48,15.48,0,0,0,3,.7,1.17,1.17,0,0,1,.25.07c1.4.46,2.89.56,4.3.95C41.46,49.25,41.57,49.24,41.68,49.25Z"></path><path class="cls-9" d="M123.16,18.47a1.45,1.45,0,0,1,.14.89c0,1,0,2,0,3,0,1.53,0,3.07,0,4.61a2.8,2.8,0,0,1-.06.71.49.49,0,0,1-.55.37,1,1,0,0,1-.64-.3,6.1,6.1,0,0,1-.51-.61c-1.25-1.72-2.55-3.4-3.86-5.08a27.92,27.92,0,0,0-3.32-3.47c-.16-.14-.31-.3-.46-.46h2.24a.57.57,0,0,1,.13,0,13.35,13.35,0,0,0,2.75.13,4.07,4.07,0,0,1,1,.09,4.66,4.66,0,0,0,.92,0,5.24,5.24,0,0,1,1.24.1A4.59,4.59,0,0,0,123.16,18.47Z"></path><path class="cls-8" d="M77.93,130c-.06-.41-.14-.82-.17-1.24A8.07,8.07,0,0,0,77,126c-.21-.46-.39-.93-.58-1.4a5.91,5.91,0,0,1-.41-1.86L75.89,121a.62.62,0,0,1,0-.13,1.28,1.28,0,0,0-1.67-1.21,7.9,7.9,0,0,0-.95.27,4.15,4.15,0,0,1-.78.16,1.79,1.79,0,0,1-1.19-.27,4.05,4.05,0,0,1-.8-.69,18,18,0,0,1-1.78-2.29,9.74,9.74,0,0,0-1.58-1.93,3.16,3.16,0,0,1-.9-1.51,22.65,22.65,0,0,1-.65-3.36c-.2-1.57-.26-3.15-.34-4.73a1.41,1.41,0,0,1,0-.2,8.83,8.83,0,0,0-.46-3.18c-.1-.34-.18-.68-.28-1a9.1,9.1,0,0,1-.26-3.52c.26-2,.48-4,.73-6a27.45,27.45,0,0,1,1.16-5.67c.38-1.1.83-2.17,1.24-3.26.8-2.09,1.58-4.19,2.23-6.34a26.2,26.2,0,0,0,1-5.63,23.53,23.53,0,0,1,.65-4.16,7.67,7.67,0,0,1,1.47-2.92c.08-.1.16-.21.25-.31A10.13,10.13,0,0,0,75.08,59c.21-.79.37-1.59.56-2.38a6,6,0,0,1,.27-.94.57.57,0,0,1,.83-.39,2,2,0,0,1,.37.14,10.73,10.73,0,0,1,3.07,2.14q.48.5,1,1a5.79,5.79,0,0,0,2.12,1.16,2.79,2.79,0,0,0,1.69,0,11.62,11.62,0,0,0,2.13-.87c2.38-1.28,4.79-2.5,7.13-3.85a19.73,19.73,0,0,1,4.24-1.78,11.11,11.11,0,0,1,5.22-.29,41.07,41.07,0,0,1,6,1.48,23.51,23.51,0,0,1,4.79,2.18,30,30,0,0,1,3.61,2.53,1.62,1.62,0,0,1,.18.19,10.17,10.17,0,0,1-.76,2.36,16.27,16.27,0,0,1-1.39,2.52l-.12.23c.11.24-.08.36-.2.51a33.9,33.9,0,0,1-5,5,4,4,0,0,1-1,.82.71.71,0,0,0-.34.3A16.84,16.84,0,0,1,108,72.74a17.92,17.92,0,0,1-3.24,2.45c-.42.24-.84.46-1.26.69a19.32,19.32,0,0,1-5.14,1.61,34.49,34.49,0,0,1-6.5.43c-1.78,0-3.56-.18-5.33-.33-.5,0-.69.06-.85.52a2.7,2.7,0,0,0-.14.64A15.37,15.37,0,0,1,84.92,82c-.07.21.07.27.2.35s.15.15.08.27A5.08,5.08,0,0,1,82,85.19a4.27,4.27,0,0,1-1.63.13c-.18,0-.23-.08-.22-.25s0-.22,0-.33,0-.52.11-.7.46-.06.7-.07a3.31,3.31,0,0,0,2.35-1.17.49.49,0,0,0,.12-.48,5.08,5.08,0,0,0-.66-1.84c-.31-.51-.24-.7.28-1,.19-.12.4-.19.59-.3a3.21,3.21,0,0,0,.5-.31.24.24,0,0,0-.07-.42,2.07,2.07,0,0,0-1.1-.12,5.94,5.94,0,0,0-2.27.84,7.39,7.39,0,0,0-3,3.65A19.86,19.86,0,0,0,77,85.34a.93.93,0,0,0,.79,1.26,3.29,3.29,0,0,0,1.25.08,7.88,7.88,0,0,0,3.21-.9,2.58,2.58,0,0,1,.48-.21.22.22,0,0,1,.26.23,2,2,0,0,1-.26.8c-.31.63-.64,1.26-.95,1.89-.19.39-.38.79-.54,1.2a6,6,0,0,0-.44,2.12,25.78,25.78,0,0,0,.08,3.29,60.23,60.23,0,0,1,.09,10q-.11,1.35-.15,2.7a24.08,24.08,0,0,1-.76,5.07,25.58,25.58,0,0,0-.66,3.36,15.17,15.17,0,0,0,0,3.3c.18,1.52.39,3.05.56,4.58,0,.52,0,1.05.06,1.58s0,1.15,0,1.72a20.88,20.88,0,0,1-.2,3.16c-.1.34-.21.69-.32,1s-.22.44-.5.43a.64.64,0,0,1-.61-.41,5.39,5.39,0,0,1-.22-.68c-.07-.23-.12-.46-.17-.69l0-.26Z"></path><path class="cls-12" d="M104.66,44a2.63,2.63,0,0,0-.76.9,19.4,19.4,0,0,1-1.33,2,10.85,10.85,0,0,1-1.79,1.92A47.75,47.75,0,0,1,94,53.52a68.94,68.94,0,0,1-8.94,4.35c-.34.14-.7.25-1.06.36a1.49,1.49,0,0,1-1.15-.13,9,9,0,0,1-.85-.5A18.14,18.14,0,0,1,80,55.94c-.27-.26-.53-.53-.8-.78a8.51,8.51,0,0,1-1.8-2.34,4.78,4.78,0,0,0-2-2l-.86-.47a3.85,3.85,0,0,1-.4-.24c-.33-.23-.29-.52.09-.69a1.48,1.48,0,0,1,.58-.1,7.16,7.16,0,0,0,2-.31,10.2,10.2,0,0,1,1.75-.33,7.53,7.53,0,0,0,1.41-.3,9.47,9.47,0,0,1,1-.25c.9-.15,1.74-.47,2.62-.66,1.23-.27,2.42-.64,3.61-1A37.84,37.84,0,0,0,94,43.56a20.81,20.81,0,0,0,5.43-4.36A10.6,10.6,0,0,0,101.82,35c.12-.44.22-.9.32-1.35a5.33,5.33,0,0,0,0-2.35c-.12-.51-.2-1-.29-1.56a2.74,2.74,0,0,1,.08-1.24,1,1,0,0,1,1.49-.64,3,3,0,0,1,1.1,1,8.7,8.7,0,0,1,1.1,2.52,10.78,10.78,0,0,1,.33,1.75,22.69,22.69,0,0,1,0,6c0,.22-.09.44-.14.65-.23.85-.46,1.69-.7,2.54,0,0-.08.07-.08.1A5.49,5.49,0,0,1,104.66,44Z"></path><path class="cls-13" d="M145.46,100.45a27.68,27.68,0,0,1-2.87-.32,17.54,17.54,0,0,1-3-.64c-.23-.07-.47-.11-.7-.16a1.69,1.69,0,0,1-.39-.08,29.61,29.61,0,0,0-3.22-.92L134.2,98a1.05,1.05,0,0,1-.76-1.1,3,3,0,0,1,.16-1c.33-1.09.7-2.17,1-3.26a2,2,0,0,1,1.54-1.43,23.07,23.07,0,0,1,2.59-.47,13.91,13.91,0,0,0,1.69-.3c.85-.21,1.72-.32,2.59-.47s1.85-.37,2.78-.51,1.61-.21,2.4-.4a.74.74,0,0,1,1,.62,3.34,3.34,0,0,1,0,1.18l-.57,4.32c-.11.89-.19,1.79-.31,2.68-.07.45-.18.9-.28,1.35a1.43,1.43,0,0,1-1.16,1.13A4.64,4.64,0,0,1,145.46,100.45Z"></path><path class="cls-9" d="M109.81,70.76a1.67,1.67,0,0,1,.55-.63A33.72,33.72,0,0,0,116,64.39a1.7,1.7,0,0,1,1.26.29c.35.22.71.43,1,.67a2.71,2.71,0,0,0,2,.46c.41-.06.83-.08,1.25-.1a2.38,2.38,0,0,1,.59,0,.81.81,0,0,1,.71.75,4.79,4.79,0,0,1,0,.66c0,2,0,4,0,6.07,0,.39,0,.79,0,1.18a4.11,4.11,0,0,1,0,1,.89.89,0,0,1-.8.76,3,3,0,0,1-.59,0,17.35,17.35,0,0,1-5.1-.94c-.13,0-.25-.09-.37-.15A21,21,0,0,1,112.54,73c-.72-.59-1.45-1.14-2.17-1.72A5.83,5.83,0,0,1,109.81,70.76Z"></path><path class="cls-14" d="M160.12,92a2.64,2.64,0,0,1,1.65.18,4.47,4.47,0,0,1,.82.54,1.2,1.2,0,0,1,.45.77c.32,1.72.66,3.45,1,5.17.29,1.51.58,3,.86,4.53,0,.15.06.3.08.45a.23.23,0,0,1-.18.24,1.32,1.32,0,0,1-.59.07,6.14,6.14,0,0,1-1.83-.5c-.14-.07-.27-.15-.4-.23a1.33,1.33,0,0,1-.67-1.07c-.08-.87-.2-1.74-.3-2.62l-.48-4C160.4,94.42,160.26,93.26,160.12,92Z"></path><path class="cls-14" d="M123.19,46.09v3.75c0,.53,0,1.06,0,1.58a2.78,2.78,0,0,1-.12.91.31.31,0,0,1-.56.13,1.69,1.69,0,0,1-.36-.55A16.35,16.35,0,0,1,121,47.74a16.41,16.41,0,0,1,0-3.36,4.21,4.21,0,0,1,.12-.71,14.84,14.84,0,0,1,1.19-3.41,4.13,4.13,0,0,1,.32-.49.21.21,0,0,1,.34,0,.86.86,0,0,1,.14.29,4.89,4.89,0,0,1,0,.66Z"></path><path class="cls-15" d="M124.45,59.86c0-1.56,0-3.12,0-4.68a3.34,3.34,0,0,1,.13-1,.23.23,0,0,1,.32-.13,1,1,0,0,1,.43.39,3.44,3.44,0,0,1,.42.89,18,18,0,0,1,.78,3.4,8.07,8.07,0,0,1-.11,2.5,22.41,22.41,0,0,1-.79,3.13,7.86,7.86,0,0,1-.36.84,1.93,1.93,0,0,1-.28.36.22.22,0,0,1-.35,0,.71.71,0,0,1-.17-.41c0-.2,0-.4,0-.6C124.45,62.94,124.45,61.4,124.45,59.86Z"></path><path class="cls-13" d="M118.9,97.92a2.64,2.64,0,0,1,2.07,1,1.19,1.19,0,0,1,.26,1.17.14.14,0,0,0,0,.06,2.7,2.7,0,0,1-4.2,1.23,1.72,1.72,0,0,1,.07-2.78A2.94,2.94,0,0,1,118.9,97.92Z"></path><path class="cls-16" d="M106.79,101.53a7,7,0,0,1,2-2.06.25.25,0,0,1,.25,0l.9.4a1.2,1.2,0,0,1,.53,1.58,2,2,0,0,1-1.52,1.13,1.84,1.84,0,0,1-1.79-.59C107,101.84,106.93,101.7,106.79,101.53Z"></path><path class="cls-2" d="M106.38,111.88c.14.18,0,.44.18.63a5,5,0,0,1,1.9-.45c.81-.06,1.62-.15,2.43-.21a10.48,10.48,0,0,1,2.17,0,.19.19,0,0,1,.14.29,1.16,1.16,0,0,1-.59.5,4.91,4.91,0,0,1-1.4.37c-1,.14-2,.29-3.07.34l-.59,0a1.54,1.54,0,0,1-1-.29l0,.63a.39.39,0,0,1-.14-.35C106.38,112.83,106.38,112.36,106.38,111.88Z"></path><path class="cls-17" d="M124.39,71.47c0-.22,0-.43,0-.65a2.88,2.88,0,0,1,.07-.59.37.37,0,0,1,.46-.26,2,2,0,0,1,1,.85.58.58,0,0,1,0,.57,5.69,5.69,0,0,1-.92,1.58.64.64,0,0,1-.22.14.2.2,0,0,1-.28-.09,1.37,1.37,0,0,1-.16-.63v-.92Z"></path><path class="cls-17" d="M123.15,58.45v1a1.14,1.14,0,0,1-.11.44c-.1.19-.3.25-.42.09a3.38,3.38,0,0,1-.85-2,.93.93,0,0,1,.78-1c.36-.09.57,0,.6.39s0,.7,0,1.05Z"></path><path class="cls-18" d="M108.61,18.26c-.2.14-.42.08-.64.09a5.07,5.07,0,0,0-1.22.1,1.3,1.3,0,0,1-.89,0,3.76,3.76,0,0,1,2-.35A1.9,1.9,0,0,1,108.61,18.26Z"></path><path class="cls-19" d="M177,137.69l2.49-.22c.66-.06,1.32-.12,2-.16,1.08-.06,2.16-.1,3.23-.17,1.69-.1,3.38-.12,5.08-.16a2.56,2.56,0,0,1,1.43.35c1,.59,2,1.12,3,1.68.17.09.33.19.52.31a.73.73,0,0,1-.5.19c-2.32.23-4.62.56-6.92.91a136.52,136.52,0,0,0-14.57,3,119,119,0,0,0-16.61,5.74,105.55,105.55,0,0,0-18.43,10.21,100.38,100.38,0,0,0-9.08,7.11c-2,1.75-3.94,3.57-5.8,5.48a110.15,110.15,0,0,0-10.59,12.63,126.65,126.65,0,0,0-9,14.57c-1.82,3.44-3.49,7-5,10.52-.26.61-.12.58-.85.58H83.63c-.12-.25,0-.42.09-.58.54-1.33,1.08-2.65,1.65-4,1.31-3,2.71-6.06,4.23-9a128.61,128.61,0,0,1,7.86-13.35A113.25,113.25,0,0,1,106.29,172q3.25-3.69,6.85-7a96.82,96.82,0,0,1,17.72-13.13A102.9,102.9,0,0,1,150.72,143c3-1,6-1.77,9-2.51.26-.1.34.14.44.28a3.09,3.09,0,0,0,1.61,1.09,21.44,21.44,0,0,0,8.12.8,9.41,9.41,0,0,0,1.76-.22c.18,0,.44-.06.47-.29s-.22-.23-.36-.34a9.14,9.14,0,0,1-2.33-2.27,1.19,1.19,0,0,1-.29-.85c.34-.43.84-.28,1.27-.38s.44.25.61.45a12.36,12.36,0,0,0,1.12,1.28,1.94,1.94,0,0,0,2.81,0,9.22,9.22,0,0,0,1.66-2C176.71,137.88,176.8,137.7,177,137.69Z"></path><path class="cls-19" d="M205,144.39l-1.51.38c-2.79.64-5.54,1.4-8.27,2.23a121.26,121.26,0,0,0-21.82,8.9,107.82,107.82,0,0,0-28.55,21.78,111.06,111.06,0,0,0-9.2,11.22,124.69,124.69,0,0,0-8.75,14c-1.22,2.27-2.37,4.57-3.47,6.89a1.42,1.42,0,0,0-.08.18.41.41,0,0,1-.46.29c-.11,0-.22,0-.33,0H111a.6.6,0,0,1,.07-.53c.6-1.47,1.18-2.94,1.8-4.39q2-4.74,4.45-9.28a109,109,0,0,1,10-15.64A96.76,96.76,0,0,1,138,168.76a94.14,94.14,0,0,1,16.85-12.53,103.79,103.79,0,0,1,16.82-7.87,120.4,120.4,0,0,1,13.51-4q4.43-1.05,8.91-1.79c1.93-.32,3.86-.59,5.8-.87a1.54,1.54,0,0,1,1.12.22c1.22.74,2.47,1.45,3.7,2.17C204.79,144.14,205,144.17,205,144.39Z"></path><path class="cls-20" d="M144.27,139.11a5.56,5.56,0,0,0-.69,1.11,16.24,16.24,0,0,1-2.55,3.59c-.17.18-.33.36-.48.55a13.23,13.23,0,0,1-4.46,3.64,25.64,25.64,0,0,1-4.41,1.71,5.79,5.79,0,0,1-1.16.22,24.35,24.35,0,0,1-3.82.08,26.87,26.87,0,0,1-2.69-.24,16.61,16.61,0,0,1-4-1.23l-.6-.26a3.09,3.09,0,0,1-1.58-.77,21,21,0,0,1-5-4.95,2,2,0,0,1-.42-.95c-.23-.5-.44-1-.69-1.49a19.89,19.89,0,0,1-1.61-4.87,20.23,20.23,0,0,1-.36-6,19.78,19.78,0,0,1,1.34-6.22,18.29,18.29,0,0,1,3.81-5.73,20.16,20.16,0,0,1,6.26-4.53,16.14,16.14,0,0,1,5.8-1.37,16.74,16.74,0,0,1,2.83.16,14.24,14.24,0,0,1,5.15,1.71,27.29,27.29,0,0,1,3.49,2.25,10.71,10.71,0,0,1,1.66,1.49,4.16,4.16,0,0,0,.42.42,16.14,16.14,0,0,1,3.27,4.35,17.51,17.51,0,0,1,2.06,6.09,17.74,17.74,0,0,1,.07,5,.69.69,0,0,0,0,.2c.15.2.07.41.05.63a3.83,3.83,0,0,0,0,1.75.39.39,0,0,1,0,.26C145.57,136.91,145.58,138.37,144.27,139.11Z"></path><path class="cls-1" d="M169.21,138.71a3.8,3.8,0,0,0,1.15,1.72c.26.21.49.44.73.67a2.34,2.34,0,0,0,1,.7.47.47,0,0,1,.17.09.36.36,0,0,1,.19.32c0,.16-.12.23-.24.29a4.86,4.86,0,0,1-1.41.3,20.89,20.89,0,0,1-3.87.14,23.36,23.36,0,0,1-4.49-.64l-.75-.23a3.14,3.14,0,0,1-1.77-1.3,2.41,2.41,0,0,0-.21-.24l-1.59-2.39a2.34,2.34,0,0,0-.29-.35,7,7,0,0,1-.91-1.18c.32-1.31-.17-2.53-.37-3.79a.76.76,0,0,1,.06-.57c.06-.78.16-.88,1-.9.53,0,1.06,0,1.59,0a4.85,4.85,0,0,0,.66,0c.64-.06.9-.36.82-1s-.14-1-.25-1.55c-.39-1.83-.79-3.65-1.18-5.48l-.9-4.38c0-.11-.05-.22-.06-.33a.6.6,0,0,1,.53-.71,5.4,5.4,0,0,1,.58-.1,2.07,2.07,0,0,0,1.9-1.49c.44-1.22.89-2.43,1.33-3.65a6.16,6.16,0,0,1,.54-1.13,2,2,0,0,1,1.54-1c.79-.08,1.58-.18,2.36-.25l1.65-.12a20.13,20.13,0,0,1,3.29.13,2.91,2.91,0,0,1,.63.16.23.23,0,0,1,.08.38,2,2,0,0,1-.61.38,4.73,4.73,0,0,0-2,1.7,13,13,0,0,0-1.68,3.27,25.53,25.53,0,0,0-1.22,5.11,39.4,39.4,0,0,0-.32,6.78c0,1.07,0,2.15.18,3.22a4,4,0,0,0,.15.77,10.51,10.51,0,0,1,.68,2.26c.1.31.16.63.24,1A18.11,18.11,0,0,0,169,138,1.07,1.07,0,0,1,169.21,138.71Z"></path><path class="cls-21" d="M88.85,132.19c-.11-.56-.24-1.12-.32-1.68A12.52,12.52,0,0,1,91.66,120a14.41,14.41,0,0,1,7.59-4.49,15.08,15.08,0,0,1,2-.35,3.94,3.94,0,0,1,1.37,0c.41.11.56.26.61.67a2.37,2.37,0,0,1,0,.46,17.34,17.34,0,0,1-.13,1.91,1.26,1.26,0,0,0,.42,1.25l.22.24a.21.21,0,0,1-.09.33,2.48,2.48,0,0,1-.76.18c-.31,0-.62.08-.92.09a3.76,3.76,0,0,0-1.4.36,10.44,10.44,0,0,0-3.06,2,7.52,7.52,0,0,0-2.24,4.45,7.82,7.82,0,0,0,4.4,8,10.92,10.92,0,0,0,2.26.88,2.08,2.08,0,0,1,1.5,1.27c.23.52.46,1,.68,1.57.29.69.57,1.38.92,2s.21.88-.52.95a18.7,18.7,0,0,1-2.9.08l-2.1-.18a5.6,5.6,0,0,1-2.5-.68,14.9,14.9,0,0,1-4.51-2.78,12.9,12.9,0,0,1-3.66-5.68A.69.69,0,0,1,88.85,132.19Z"></path><path class="cls-22" d="M116.66,149.77a15.14,15.14,0,0,0-3.15-1.12,1.44,1.44,0,0,1-.59-.27c-.72-.54-1.45-1.07-2.18-1.6l-.63-.48a9.51,9.51,0,0,1-2.38-2.52,4.07,4.07,0,0,0-.62-1.23,23.48,23.48,0,0,1-3.09-6.68,16.14,16.14,0,0,1-.54-3.18c0-.52-.09-1.05-.11-1.57a18.51,18.51,0,0,1,.79-6.06,20.23,20.23,0,0,1,2.65-5.57,14.55,14.55,0,0,1,2.21-2.62c.42-.38.85-.77,1.26-1.16a17.17,17.17,0,0,1,5.26-3.34l.72-.33a4,4,0,0,1,.48-.2,43,43,0,0,1,4.6-1.16,4.91,4.91,0,0,1,2.09-.07.61.61,0,0,1,.13,0,.14.14,0,0,1,.08.07.12.12,0,0,1-.08.16,2.23,2.23,0,0,1-.43.16,28.68,28.68,0,0,0-4,1.43,2.8,2.8,0,0,0-.3.15,20.06,20.06,0,0,0-7.21,6.91,26.79,26.79,0,0,0-2.3,4.8,12.6,12.6,0,0,0-.53,2.18,24.87,24.87,0,0,0-.39,5.38,21.38,21.38,0,0,0,.76,5.34,15.42,15.42,0,0,0,2.31,4.86,1.62,1.62,0,0,1,.57.62,21.46,21.46,0,0,0,5.9,5.73,1.05,1.05,0,0,1,.47.44,14,14,0,0,0,2.9,1.37l.93.35a.19.19,0,0,1,.14.2.22.22,0,0,1-.21.21,2.69,2.69,0,0,1-1,0c-1-.26-2-.5-3-.68a5.43,5.43,0,0,1-.93-.33Z"></path><path class="cls-23" d="M177,137.69l-.25.38a8.71,8.71,0,0,1-2,2.4,1.06,1.06,0,0,1-.21.16,2.56,2.56,0,0,1-2.41-.27c-.42-.45-.83-.9-1.2-1.38l-.42-.5a4.12,4.12,0,0,1-1.11-1.87c-.21-.48-.34-1-.51-1.48-.19-.79-.42-1.57-.54-2.37a1.26,1.26,0,0,1,0-.72c-.07-.63-.13-1.26-.21-1.89-.1-.85-.23-1.7-.3-2.55A20.16,20.16,0,0,1,168,124c.13-1.35.32-2.7.58-4a18.64,18.64,0,0,1,1.46-4.42,10.08,10.08,0,0,1,1.17-1.91,5.36,5.36,0,0,1,.79-.79,2.6,2.6,0,0,1,3.07-.15,5.21,5.21,0,0,1,1.35,1.34,11.11,11.11,0,0,1,1.39,2.75,26.94,26.94,0,0,1,1.35,7.42c0,1.08.1,2.15.1,3.22a9.5,9.5,0,0,1-.09,1.51c-.09.59-.06,1.19-.13,1.77a25.91,25.91,0,0,1-1.31,5.43C177.5,136.69,177.26,137.18,177,137.69Z"></path><path class="cls-1" d="M106.11,144.56a3.88,3.88,0,0,0-.59,0,24.88,24.88,0,0,1-3.86.07,23.45,23.45,0,0,1-4.79-.69c-.15,0-.3-.05-.45-.08a2.48,2.48,0,0,0-.73-.27,16.85,16.85,0,0,1-5.61-3,14.7,14.7,0,0,1-5.08-8,7.67,7.67,0,0,0-.27-1.15c0-.13,0-.26,0-.39a16.19,16.19,0,0,1,8.45-16.3,20.26,20.26,0,0,1,6.12-2.18,24.73,24.73,0,0,1,3.93-.42h.33c.22,0,.29.06.3.25,0,.47,0,.93,0,1.39a.19.19,0,0,1-.2.21l-.46,0a15,15,0,0,0-9.66,2.9,14.69,14.69,0,0,0-5.79,9.36,13.51,13.51,0,0,0,0,5.11c0,.24.12.47.18.71a2.27,2.27,0,0,1,.32.57c1.33,4.21,4.25,6.86,8.25,8.48.8.33,1.63.53,2.44.8a.45.45,0,0,1,.27.18,13.74,13.74,0,0,0,2.45.46,23.79,23.79,0,0,0,3.67.22,1.33,1.33,0,0,1,1.29.93c.06.19.11.38.17.57s-.17.21-.32.23Z"></path><path class="cls-7" d="M156.63,132.25c.19.91.35,1.83.57,2.74a1.84,1.84,0,0,1-.15,1.38l-.11.24c-2.84.47-5.69,1-8.51,1.59-1.26.28-2.51.58-3.77.87a.86.86,0,0,1-.39,0,1.42,1.42,0,0,1,.51-.67,1.53,1.53,0,0,0,.55-.87c0-.19.08-.38.14-.57a3,3,0,0,1,.4-1,.41.41,0,0,0,0-.48,1.49,1.49,0,0,1-.12-1,12,12,0,0,1,.21-1.36l3.86-.4,1.71-.14,2.82-.18Z"></path><path class="cls-3" d="M107.75,108.63c-.18,0-.35,0-.53,0a.84.84,0,0,1-.3-.11.43.43,0,0,1-.06-.72,1.21,1.21,0,0,1,.47-.23,8.3,8.3,0,0,1,1-.22,15.07,15.07,0,0,1,1.77-.14c1.74,0,3.46-.23,5.19-.37,1.29-.12,2.58-.2,3.87-.3.46,0,.92-.08,1.38-.1a5.21,5.21,0,0,1,.79,0,.68.68,0,0,1,.47.21.43.43,0,0,1,0,.68,1.36,1.36,0,0,1-.53.25,4,4,0,0,1-.85.11c-1,0-2,.09-3,.15-.53,0-1,.08-1.58.16-1.37.19-2.75.25-4.13.33-1.14.07-2.28.13-3.41.28-.15,0-.31,0-.46,0Z"></path><path class="cls-24" d="M120.14,104c.36,0,.66-.06,1-.07a4.62,4.62,0,0,1,.65.08.33.33,0,0,1,.33.27.4.4,0,0,1-.17.4,1.57,1.57,0,0,1-.82.39l-.85.11-5.37.52c-.7.06-1.4.1-2.1.14-1.6.09-3.2.17-4.79.38a1.72,1.72,0,0,1-.78-.06.44.44,0,0,1-.31-.31.45.45,0,0,1,.18-.47,1.85,1.85,0,0,1,.78-.32c.55-.07,1.09-.16,1.63-.22s1.14-.11,1.71-.13c1.62-.08,3.24-.24,4.86-.39C117.43,104.19,118.81,104,120.14,104Z"></path><path class="cls-25" d="M99.22,142.09a16.21,16.21,0,0,1-8.28-4.47,12.2,12.2,0,0,1-3-5.56l.91.13a2.57,2.57,0,0,1,.25.67,12.77,12.77,0,0,0,4.9,6.42,15.91,15.91,0,0,0,5.29,2.39,1,1,0,0,1,.24.11A.62.62,0,0,1,99.22,142.09Z"></path><path class="cls-7" d="M118.39,148.87a10.45,10.45,0,0,1-1.76-1.15,24.87,24.87,0,0,1-4-3.84,13.49,13.49,0,0,1-1.21-1.8l1-.47a19.92,19.92,0,0,0,4.41,5,15.59,15.59,0,0,0,2.56,1.7Z"></path><path class="cls-26" d="M168.4,132a2.57,2.57,0,0,1,.18.82c.16.65.31,1.3.46,1.95a3.16,3.16,0,0,1,0,.32.87.87,0,0,1-1.06.12,2.13,2.13,0,0,1-.23-.74c-.19-.67-.35-1.35-.51-2a3.26,3.26,0,0,1-.05-.45Z"></path><path class="cls-27" d="M81.83,80.93a.77.77,0,0,1-.2.54.44.44,0,0,1-.64,0,.81.81,0,0,1,0-1,.42.42,0,0,1,.68,0A.77.77,0,0,1,81.83,80.93Z"></path><path class="cls-28" d="M42.82,135c-.26-.58-.56-1.15-.79-1.74a5.71,5.71,0,0,1,1.4-6.07,4.24,4.24,0,0,1,1.14-.77,2.41,2.41,0,0,1,1.61-.13c.42.11.85.22,1.27.36a1.79,1.79,0,0,0,1.89-.41,7.78,7.78,0,0,0,1-1.14c.29-.39.56-.79.85-1.17a6.73,6.73,0,0,1,.59-.71,3.18,3.18,0,0,1,2.78-1.06,7.17,7.17,0,0,1,2.48.65c.25.13.52.23.78.35a1.83,1.83,0,0,0,1.47,0c.35-.14.7-.26,1.05-.39a9.11,9.11,0,0,1,2.41-.63,3.29,3.29,0,0,1,3,1.2c.31.37.58.78.86,1.17l.73,1a3.17,3.17,0,0,0,.92.83,2,2,0,0,0,1.58.26l1.34-.34a2.52,2.52,0,0,1,2.19.44A5.64,5.64,0,0,1,75.7,132a1.28,1.28,0,0,0-.07.64c0,.22,0,.44,0,.66a1.39,1.39,0,0,1-.29.92,10.85,10.85,0,0,1-2.52,2.67A31.23,31.23,0,0,0,70.27,139a1.87,1.87,0,0,0-.64,1,1.71,1.71,0,0,1-.23.47,2.57,2.57,0,0,0-.39.9,1,1,0,0,1-.11.31,13.76,13.76,0,0,1-1.15,1.6,2.75,2.75,0,0,1-1.68.83c-.34.06-.7.09-1,.18a4.37,4.37,0,0,1-1.57.06,35.17,35.17,0,0,0-6-.33c-1.14.08-2.27.18-3.41.3a6.86,6.86,0,0,1-1.57,0c-.5-.07-1-.17-1.49-.28a3,3,0,0,1-1.56-.93,9.62,9.62,0,0,1-.93-1.27,1.67,1.67,0,0,1-.23-.68.57.57,0,0,0-.09-.38c-.47-.52-.74-1.19-1.26-1.68-.17-.21-.34-.42-.52-.62l-1.14-1a10.77,10.77,0,0,0-1.57-1.29,2.66,2.66,0,0,1-.61-.68l-.15-.27h0l-.13-.27Z"></path><path class="cls-29" d="M47,139a4.48,4.48,0,0,1,1.21,1.79c-.05,0-.12.07-.16,0s-.24-.3-.36-.46l-.85-1.22C46.83,139,46.87,139,47,139Z"></path><path class="cls-30" d="M47,139l-.16.13a1.29,1.29,0,0,1-.41-.64A1.56,1.56,0,0,1,47,139Z"></path><path class="cls-13" d="M21.73,75a17.52,17.52,0,0,1-4.49-.7A20.12,20.12,0,0,1,5.67,65.62,16.72,16.72,0,0,1,4.26,63,5.92,5.92,0,0,1,4,62.21a.65.65,0,0,1,.24-.71,3.82,3.82,0,0,1,.49-.33,11.79,11.79,0,0,1,5-1.55,6.41,6.41,0,0,1,2.77.45,1.53,1.53,0,0,1,.87.67c.11.22.09.31-.12.44a2,2,0,0,0-.59.41.32.32,0,0,0,0,.51.89.89,0,0,0,.41.21l.64.13A6.42,6.42,0,0,1,16.81,64a1.84,1.84,0,0,1,.41.51.28.28,0,0,1-.06.36c-.15.15-.33.28-.48.44a.17.17,0,0,0,0,.28,3.71,3.71,0,0,0,.53.26,15.49,15.49,0,0,1,1.45.63c1.2.59,2.41,1.16,3.67,1.64a16,16,0,0,0,5.61,1c.53,0,1.06,0,1.58,0,.77,0,.94.31.63,1a6.79,6.79,0,0,1-1.26,1.92,7.8,7.8,0,0,1-3.69,2.31A12.31,12.31,0,0,1,21.73,75Z"></path><path class="cls-14" d="M35.4,85.64a7.26,7.26,0,0,0,1.31.12c.22,0,.28-.08.27-.29s0-.39,0-.59c0-.53-.08-.52-.54-.51a2.47,2.47,0,0,1-2-1c-.13-.16-.22-.38-.51-.32-.09,0-.1-.12-.09-.2a5.58,5.58,0,0,1,.66-2.19c.08-.13.17-.26.24-.4a.35.35,0,0,0-.16-.55,7.82,7.82,0,0,0-.81-.43,1.41,1.41,0,0,1-.59-.4.26.26,0,0,1,.11-.43,1.7,1.7,0,0,1,.63-.14,4.8,4.8,0,0,1,1.8.34,6.57,6.57,0,0,1,3.17,2.57A9.18,9.18,0,0,1,40,83.62c.17.54.32,1.1.48,1.64a2,2,0,0,1,.09.58.62.62,0,0,1-.41.62,1.26,1.26,0,0,1-.37.13,6.64,6.64,0,0,1-4.63-.82C35.12,85.52,35.29,85.63,35.4,85.64Z"></path><path class="cls-31" d="M35.4,85.64l-.28.13c-.21-.07-.42-.2-.65-.06,0-.23.26-.16.36-.28A1.16,1.16,0,0,1,35.4,85.64Z"></path><path class="cls-10" d="M175,195.09a94.87,94.87,0,0,1,9.32-14.9,109.19,109.19,0,0,1,15.58-16.44l1-.81c.08-.07.14-.17.31-.14a1.53,1.53,0,0,1-.24.59c-1.16,2.35-2.43,4.63-3.79,6.86a97.07,97.07,0,0,1-17,20.62q-2.44,2.26-5,4.37C175,195.27,175,195.23,175,195.09Z"></path><path class="cls-32" d="M175,195.09l.16.15a.88.88,0,0,1-.12.15s-.13.08-.16.06,0-.15,0-.22S174.94,195.14,175,195.09Z"></path><path class="cls-21" d="M57.49,45.36a18.72,18.72,0,0,0,2.7,0,10.71,10.71,0,0,1,3.48.2,7.91,7.91,0,0,1,1.6.59c.36.16.71.34,1.06.52a12.16,12.16,0,0,0,4.5,1.15l1.45.11c.17,0,.38,0,.44.22s-.15.35-.32.45-.4.19-.59.28c-.5.23-.57.5-.21.92a8.18,8.18,0,0,0,2,1.79,4.32,4.32,0,0,0,1.16.46.64.64,0,0,1,.44.25c.05.08.07.18,0,.24a.94.94,0,0,1-.28.15,3,3,0,0,1-.84.14,10.15,10.15,0,0,1-3.63-.53l-.25-.08a.77.77,0,0,0-.91.37,4.3,4.3,0,0,0-.25.53,4.16,4.16,0,0,1-.22.48.39.39,0,0,1-.55.18c-.13,0-.24-.11-.37-.15a.36.36,0,0,0-.44.28,1,1,0,0,0,0,.52,3.77,3.77,0,0,1,.14.58.3.3,0,0,1-.35.3c-.1,0-.21-.07-.31-.1a2.35,2.35,0,0,0-.37-.14c-.3-.07-.46,0-.5.35s-.07.69-.11,1a4.24,4.24,0,0,1-.53,1.62.56.56,0,0,1-.59.33c-.13,0-.26,0-.39-.05a1.06,1.06,0,0,0-1,.3,12,12,0,0,1-2.85,1.88,12.36,12.36,0,0,0-1.31.76,1.11,1.11,0,0,1-1.29,0l-.69-.39c-.58-.32-1.15-.65-1.73-1a6.36,6.36,0,0,1-1.44-1q-.2-.2-.39-.36a.9.9,0,0,0-.73-.24,1.1,1.1,0,0,0-.26,0,.78.78,0,0,1-1-.52A4.31,4.31,0,0,1,51.31,56c0-.22-.05-.44-.08-.66a.35.35,0,0,0-.48-.3c-.15,0-.29.11-.43.15a.93.93,0,0,1-.32,0,.2.2,0,0,1-.2-.22,5.06,5.06,0,0,1,.08-.52c0-.19.07-.39.09-.58a.3.3,0,0,0-.39-.32c-.17,0-.33.13-.5.17a.41.41,0,0,1-.54-.24c-.07-.16-.12-.33-.19-.49a2.91,2.91,0,0,0-.21-.48.87.87,0,0,0-1-.39,1.06,1.06,0,0,0-.25.09,8,8,0,0,1-3.62.51,5,5,0,0,1-.85-.13c-.2,0-.32-.17-.3-.29s.16-.25.31-.3l.26-.07a4.5,4.5,0,0,0,2-1.16c.28-.28.57-.55.84-.84a2.85,2.85,0,0,0,.38-.53.33.33,0,0,0-.18-.53c-.22-.1-.45-.16-.68-.25a.74.74,0,0,1-.47-.43c-.06-.17,0-.32.18-.34a9.3,9.3,0,0,1,1-.09,15,15,0,0,0,2.74-.32,7.63,7.63,0,0,0,1.75-.57c.6-.26,1.21-.52,1.79-.83a7.2,7.2,0,0,1,3.43-.79C56.22,45.31,56.85,45.35,57.49,45.36Z"></path><path class="cls-7" d="M43,135.24h0Z"></path><path class="cls-7" d="M42.82,135h0Z"></path><polygon class="cls-7" points="77.93 129.95 77.95 129.96 77.93 129.96 77.93 129.95"></polygon><path class="cls-13" d="M94.07,76.31a12.81,12.81,0,0,1-4.46-.67,8.41,8.41,0,0,1-4.93-4.41,1.9,1.9,0,0,1-.21-.62.42.42,0,0,1,.32-.5,3.52,3.52,0,0,1,.92-.12h1.45A17.06,17.06,0,0,0,94,68.59c1.15-.49,2.27-1,3.4-1.59a6.41,6.41,0,0,1,1.59-.62,1.09,1.09,0,0,0,.25-.1.35.35,0,0,0,0-.63A.78.78,0,0,0,99,65.5c-.37-.17-.44-.28-.1-.7a5,5,0,0,1,1.86-1.44,17.1,17.1,0,0,1,1.86-.66,7.86,7.86,0,0,0,.93-.32c.45-.2.46-.49,0-.77l-.28-.16a1.85,1.85,0,0,1-.27-.19.41.41,0,0,1,0-.54,1.18,1.18,0,0,1,.45-.38,7.13,7.13,0,0,1,4.5-.58l.52.07a12.23,12.23,0,0,1,3.87,1.44,3.7,3.7,0,0,1,.33.21,1,1,0,0,1,.45,1.35,8.93,8.93,0,0,1-.35.85,22,22,0,0,1-6.51,8.1A21.46,21.46,0,0,1,97.48,76,14.23,14.23,0,0,1,94.07,76.31Z"></path><path class="cls-33" d="M168,135.25l1.06-.12c.12.12.12.28.17.42a13.06,13.06,0,0,0,1.31,2.93l-1.34.23A10.4,10.4,0,0,1,168,135.25Z"></path><path class="cls-13" d="M128,120.85l2,.09a2.93,2.93,0,0,1,.72.12,11.53,11.53,0,0,1,4.84,2.83,11.29,11.29,0,0,1,2.43,3.73,10.08,10.08,0,0,1,.59,2.48,12,12,0,0,1,.13,2.23,17.49,17.49,0,0,1-.3,2.29,4,4,0,0,1-.35,1.06,8.93,8.93,0,0,0-.39.83,10.86,10.86,0,0,1-4.88,5.18,15.48,15.48,0,0,1-1.44.65,3.72,3.72,0,0,1-1.09.23,11.44,11.44,0,0,0-1.31.17,6.06,6.06,0,0,1-1.9,0,11,11,0,0,1-7.68-4.48,9.2,9.2,0,0,1-1.33-2.49,19.07,19.07,0,0,1-.7-2.67,7,7,0,0,1,.31-3.83,4.73,4.73,0,0,0,.18-1,2,2,0,0,1,.3-.8,3.37,3.37,0,0,0,.25-.46,10,10,0,0,1,5.43-5.46,5.6,5.6,0,0,1,3.36-.74Z"></path><path class="cls-13" d="M169.74,126.82a7.63,7.63,0,0,1,.28-2.38,14.54,14.54,0,0,0,.37-1.74,3.07,3.07,0,0,1,.37-1.18,3.9,3.9,0,0,0,.31-.8,4,4,0,0,1,1.19-1.86,2.21,2.21,0,0,1,1.57-.59,1.62,1.62,0,0,1,1.08.4c.37.34.72.71,1.08,1.07a.91.91,0,0,1,.11.16,7.45,7.45,0,0,1,.92,2.31,10.92,10.92,0,0,0,.34,1.48,10.6,10.6,0,0,1,.23,2c0,.51.08,1,.13,1.52a3.29,3.29,0,0,1-.21,1.55,7.85,7.85,0,0,0-.51,1.9,3.85,3.85,0,0,1-.38,1.19,2.54,2.54,0,0,0-.3.93,2.13,2.13,0,0,1-.48,1.07,4,4,0,0,1-1.69,1.32,1.64,1.64,0,0,1-2-.4,3,3,0,0,1-.63-.92c-.18-.38-.34-.76-.49-1.15a4.24,4.24,0,0,0-.18-.5,5,5,0,0,1-.58-2.07,2.34,2.34,0,0,0-.12-.65A7.8,7.8,0,0,1,169.74,126.82Z"></path><path class="cls-13" d="M50.73,138.46A4.88,4.88,0,0,1,47.44,137a2.06,2.06,0,0,1-.54-2.18,2.23,2.23,0,0,0,.12-.51,1.09,1.09,0,0,0-.28-.91c-.17-.18-.33-.36-.5-.53a5.15,5.15,0,0,1-1.46-2.53c-.07-.28-.14-.55-.19-.83a.46.46,0,0,1,.22-.57.61.61,0,0,1,.73,0,2.16,2.16,0,0,1,.37.37c.14.17.27.35.4.52a4,4,0,0,0,1.07,1l.55.36a2.88,2.88,0,0,1,1,1,6.32,6.32,0,0,0,1.22,1.46c.27.23.52.47.77.72a5.1,5.1,0,0,1,1.3,2.47,1.87,1.87,0,0,1,0,.53,1,1,0,0,1-.63.92A1.83,1.83,0,0,1,50.73,138.46Z"></path><path class="cls-13" d="M66.77,138.49a2,2,0,0,1-.91-.14,1.05,1.05,0,0,1-.71-1,2.37,2.37,0,0,1,.11-.84A5.28,5.28,0,0,1,66.87,134a7.13,7.13,0,0,0,1.61-1.81A3.34,3.34,0,0,1,69.69,131a4.53,4.53,0,0,0,1.68-1.54,1.22,1.22,0,0,1,.84-.59c.48-.1.67.21.64.52a1.5,1.5,0,0,1,0,.2,6.32,6.32,0,0,1-1.45,3l-.72.77a1.16,1.16,0,0,0-.24,1.28.56.56,0,0,0,0,.12,2,2,0,0,1-.59,2.27,5.58,5.58,0,0,1-2.72,1.39A1.9,1.9,0,0,1,66.77,138.49Z"></path><path class="cls-34" d="M35.58,82a1.2,1.2,0,0,1,.05-.23.47.47,0,0,1,.46-.39.45.45,0,0,1,.43.35.8.8,0,0,1-.09.8.42.42,0,0,1-.71,0A.9.9,0,0,1,35.58,82Z"></path><path class="cls-35" d="M122.62,131.33a4.11,4.11,0,0,1,1.77-3.44,5.15,5.15,0,0,1,2.31-.88,3.72,3.72,0,0,1,2.29.44,5.16,5.16,0,0,1,2.31,2.44,3.7,3.7,0,0,1,.26,2.45,4.55,4.55,0,0,1-4.37,3.71,4.1,4.1,0,0,1-3.91-2.21A5.37,5.37,0,0,1,122.62,131.33Z"></path><path class="cls-36" d="M172.09,126.63a15.15,15.15,0,0,1,.15-1.74.69.69,0,0,1,1.3-.21,2.43,2.43,0,0,1,.22,1,7.07,7.07,0,0,1-.37,2.46,1.09,1.09,0,0,1-.31.5.4.4,0,0,1-.63-.08,1.71,1.71,0,0,1-.22-.54A5,5,0,0,1,172.09,126.63Z"></path></svg>